<?xml version="1.0" encoding="UTF-8"?>
<svg version="1.1" xmlns="http://www.w3.org/2000/svg" width="640" height="652">
<path d="M0 0 C0.77408203 0.10538086 1.54816406 0.21076172 2.34570312 0.31933594 C31.01640342 4.37149701 58.53345458 14.40395881 84 28 C84.9178125 28.47566406 85.835625 28.95132813 86.78125 29.44140625 C92.7377798 32.59011402 98.49428464 36.06450966 104.25 39.5625 C105.00716309 40.02180908 105.76432617 40.48111816 106.54443359 40.9543457 C111.17160641 43.79178219 115.70470261 46.67625797 120 50 C120 50.66 120 51.32 120 52 C120.7425 52.268125 121.485 52.53625 122.25 52.8125 C124.89061949 53.95276751 126.85552844 55.09380306 129 57 C129 57.66 129 58.32 129 59 C129.53109375 59.226875 130.0621875 59.45375 130.609375 59.6875 C133.78994062 61.43369289 136.47998907 63.68061286 139.25 66 C139.80429687 66.45117188 140.35859375 66.90234375 140.9296875 67.3671875 C142.32731582 68.53073029 143.66885563 69.76094738 145 71 C145 71.66 145 72.32 145 73 C145.598125 73.268125 146.19625 73.53625 146.8125 73.8125 C148.99847854 74.99917406 150.41332594 76.09599113 152 78 C152 78.66 152 79.32 152 80 C152.66 80 153.32 80 154 80 C154 80.66 154 81.32 154 82 C154.59296875 82.2578125 155.1859375 82.515625 155.796875 82.78125 C158.17660965 84.09769895 159.50978792 85.42580782 161.25 87.5 C161.77078125 88.1084375 162.2915625 88.716875 162.828125 89.34375 C164 91 164 91 164 93 C164.66 93 165.32 93 166 93 C167.73735056 94.96103061 169.34494576 96.92521283 170.9375 99 C171.42476562 99.63010986 171.91203125 100.26021973 172.4140625 100.90942383 C188.61786599 122.07798523 202.19957866 145.17900162 212 170 C212.38542969 170.91910156 212.77085937 171.83820313 213.16796875 172.78515625 C220.22828214 190.12747944 224.98712853 208.54267513 228 227 C228.22429687 228.31218506 228.22429687 228.31218506 228.453125 229.65087891 C233.12673356 257.94937726 233.06407566 288.76766445 228 317 C227.80132324 318.11197754 227.60264648 319.22395508 227.39794922 320.36962891 C224.30897082 337.07325069 219.8703216 353.06758027 214 369 C213.731875 369.73524902 213.46375 370.47049805 213.1875 371.22802734 C205.95505099 390.83945322 195.57280449 409.62845552 184 427 C183.43418213 427.85464844 183.43418213 427.85464844 182.85693359 428.7265625 C181.64290575 430.55319103 180.41737592 432.37151134 179.1875 434.1875 C178.80207031 434.7652417 178.41664063 435.3429834 178.01953125 435.93823242 C177.06476057 437.32912508 176.03809462 438.67013948 175 440 C174.34 440 173.68 440 173 440 C172.6596875 441.051875 172.6596875 441.051875 172.3125 442.125 C170.66158712 445.74128535 168.7091165 448.08769976 166 451 C165.34 451 164.68 451 164 451 C163.77828125 451.53753906 163.5565625 452.07507813 163.328125 452.62890625 C161.55575648 455.79310535 159.21206035 458.30546477 156.75 460.9375 C155.97003662 461.77607544 155.97003662 461.77607544 155.17431641 462.6315918 C151.04838218 467.00830375 146.76396487 471.20055855 142.375 475.3125 C141.77139648 475.88154053 141.16779297 476.45058105 140.54589844 477.03686523 C136.24702963 481 136.24702963 481 134 481 C133.67 481.99 133.34 482.98 133 484 C131.6081543 485.31518555 131.6081543 485.31518555 129.82421875 486.63671875 C129.16719971 487.1275293 128.51018066 487.61833984 127.83325195 488.12402344 C126.77110474 488.89794434 126.77110474 488.89794434 125.6875 489.6875 C124.96199951 490.2227832 124.23649902 490.75806641 123.48901367 491.30957031 C117.45142785 495.73513736 111.31024288 499.97128311 105 504 C103.49953125 504.96486328 103.49953125 504.96486328 101.96875 505.94921875 C75.93031978 522.35214076 47.64965201 533.69456572 17.75 540.75 C16.50653809 541.04414795 15.26307617 541.3382959 13.98193359 541.64135742 C-4.6342817 545.90012192 -23.08680577 547.1811774 -42.11572266 547.13037109 C-44.49778604 547.12500499 -46.87966097 547.13035877 -49.26171875 547.13671875 C-62.69103527 547.14417659 -75.98253345 546.63359066 -89.25 544.375 C-90.25522705 544.20387695 -91.2604541 544.03275391 -92.29614258 543.85644531 C-112.2001339 540.30123235 -131.35559324 534.79817475 -150 527 C-150.73814941 526.69562012 -151.47629883 526.39124023 -152.23681641 526.07763672 C-179.5830722 514.74679391 -204.21936192 498.42814091 -226.5234375 479.08203125 C-228.80294959 477.00133753 -228.80294959 477.00133753 -231 476 C-231 475.34 -231 474.68 -231 474 C-231.66 474 -232.32 474 -233 474 C-233 473.34 -233 472.68 -233 472 C-233.8971875 471.5978125 -233.8971875 471.5978125 -234.8125 471.1875 C-236.99847854 470.00082594 -238.41332594 468.90400887 -240 467 C-240 466.34 -240 465.68 -240 465 C-240.66 465 -241.32 465 -242 465 C-242 464.34 -242 463.68 -242 463 C-242.639375 462.731875 -243.27875 462.46375 -243.9375 462.1875 C-246 461 -246 461 -247 458 C-247.66 458 -248.32 458 -249 458 C-256.76963517 449.77742646 -263.30364768 440.10289251 -270 431 C-270.66128906 430.1028125 -271.32257813 429.205625 -272.00390625 428.28125 C-279.74443933 417.5055659 -286.32152028 405.97946658 -292 394 C-292.84691406 392.24236328 -292.84691406 392.24236328 -293.7109375 390.44921875 C-304.16347641 368.59234638 -311.77869106 345.88619021 -316 322 C-316.14421387 321.1843457 -316.28842773 320.36869141 -316.43701172 319.52832031 C-319.8517535 299.70053956 -320.29922947 280.08709805 -320 260 C-319.99274902 259.2275293 -319.98549805 258.45505859 -319.97802734 257.65917969 C-319.54219696 225.34863539 -311.23809678 190.02381267 -297 161 C-296.35639697 159.59771716 -295.71608113 158.19392334 -295.078125 156.7890625 C-287.06569683 139.2742843 -277.54580439 123.12769062 -266.15405273 107.59960938 C-265.06635535 106.09197382 -264.03121296 104.54681944 -263 103 C-262.34 103 -261.68 103 -261 103 C-260.78472656 102.30261719 -260.56945312 101.60523438 -260.34765625 100.88671875 C-258.65079297 97.25198843 -256.18980092 94.66347496 -253.4375 91.8125 C-249.81023115 88.20855319 -249.81023115 88.20855319 -247 84 C-246.34 84 -245.68 84 -245 84 C-245 83.34 -245 82.68 -245 82 C-242.625 79.375 -242.625 79.375 -240 77 C-239.34 77 -238.68 77 -238 77 C-238 76.34 -238 75.68 -238 75 C-236.390625 73.34375 -236.390625 73.34375 -234.25 71.5 C-233.55390625 70.8915625 -232.8578125 70.283125 -232.140625 69.65625 C-230 68 -230 68 -227.796875 66.96875 C-225.64367081 66.0726576 -225.64367081 66.0726576 -225 63 C-217.56507447 55.85765256 -208.36916405 50.23008015 -199.93261719 44.35400391 C-198.30228033 43.21177952 -196.68476941 42.05128034 -195.0703125 40.88671875 C-189.29182307 36.72362173 -183.32862657 33.26068831 -177 30 C-175.83984375 29.39414063 -174.6796875 28.78828125 -173.484375 28.1640625 C-138.98240882 10.3766987 -102.66376339 0.08736416 -64 -3 C-63.20303711 -3.06461426 -62.40607422 -3.12922852 -61.58496094 -3.19580078 C-40.83050115 -4.7965664 -20.57596633 -2.8407649 0 0 Z " fill="#F79B35" transform="translate(364,49)"/>
<path d="M0 0 C0.77408203 0.10538086 1.54816406 0.21076172 2.34570312 0.31933594 C31.01640342 4.37149701 58.53345458 14.40395881 84 28 C84.9178125 28.47566406 85.835625 28.95132813 86.78125 29.44140625 C92.7377798 32.59011402 98.49428464 36.06450966 104.25 39.5625 C105.00716309 40.02180908 105.76432617 40.48111816 106.54443359 40.9543457 C111.17160641 43.79178219 115.70470261 46.67625797 120 50 C120 50.66 120 51.32 120 52 C120.7425 52.268125 121.485 52.53625 122.25 52.8125 C124.89061949 53.95276751 126.85552844 55.09380306 129 57 C129 57.66 129 58.32 129 59 C129.53109375 59.226875 130.0621875 59.45375 130.609375 59.6875 C133.78994062 61.43369289 136.47998907 63.68061286 139.25 66 C139.80429687 66.45117188 140.35859375 66.90234375 140.9296875 67.3671875 C142.32731582 68.53073029 143.66885563 69.76094738 145 71 C145 71.66 145 72.32 145 73 C145.598125 73.268125 146.19625 73.53625 146.8125 73.8125 C148.99847854 74.99917406 150.41332594 76.09599113 152 78 C152 78.66 152 79.32 152 80 C152.66 80 153.32 80 154 80 C154 80.66 154 81.32 154 82 C154.59296875 82.2578125 155.1859375 82.515625 155.796875 82.78125 C158.17660965 84.09769895 159.50978792 85.42580782 161.25 87.5 C161.77078125 88.1084375 162.2915625 88.716875 162.828125 89.34375 C164 91 164 91 164 93 C164.66 93 165.32 93 166 93 C167.73735056 94.96103061 169.34494576 96.92521283 170.9375 99 C171.42476562 99.63010986 171.91203125 100.26021973 172.4140625 100.90942383 C188.61786599 122.07798523 202.19957866 145.17900162 212 170 C212.38542969 170.91910156 212.77085937 171.83820313 213.16796875 172.78515625 C220.22828214 190.12747944 224.98712853 208.54267513 228 227 C228.22429687 228.31218506 228.22429687 228.31218506 228.453125 229.65087891 C233.12673356 257.94937726 233.06407566 288.76766445 228 317 C227.80132324 318.11197754 227.60264648 319.22395508 227.39794922 320.36962891 C224.30897082 337.07325069 219.8703216 353.06758027 214 369 C213.731875 369.73524902 213.46375 370.47049805 213.1875 371.22802734 C205.95505099 390.83945322 195.57280449 409.62845552 184 427 C183.43418213 427.85464844 183.43418213 427.85464844 182.85693359 428.7265625 C181.64290575 430.55319103 180.41737592 432.37151134 179.1875 434.1875 C178.80207031 434.7652417 178.41664063 435.3429834 178.01953125 435.93823242 C177.06476057 437.32912508 176.03809462 438.67013948 175 440 C174.34 440 173.68 440 173 440 C172.6596875 441.051875 172.6596875 441.051875 172.3125 442.125 C170.66158712 445.74128535 168.7091165 448.08769976 166 451 C165.34 451 164.68 451 164 451 C163.77828125 451.53753906 163.5565625 452.07507813 163.328125 452.62890625 C161.55575648 455.79310535 159.21206035 458.30546477 156.75 460.9375 C155.97003662 461.77607544 155.97003662 461.77607544 155.17431641 462.6315918 C151.04838218 467.00830375 146.76396487 471.20055855 142.375 475.3125 C141.77139648 475.88154053 141.16779297 476.45058105 140.54589844 477.03686523 C136.24702963 481 136.24702963 481 134 481 C133.67 481.99 133.34 482.98 133 484 C131.6081543 485.31518555 131.6081543 485.31518555 129.82421875 486.63671875 C129.16719971 487.1275293 128.51018066 487.61833984 127.83325195 488.12402344 C126.77110474 488.89794434 126.77110474 488.89794434 125.6875 489.6875 C124.96199951 490.2227832 124.23649902 490.75806641 123.48901367 491.30957031 C117.45142785 495.73513736 111.31024288 499.97128311 105 504 C103.49953125 504.96486328 103.49953125 504.96486328 101.96875 505.94921875 C75.93031978 522.35214076 47.64965201 533.69456572 17.75 540.75 C16.50653809 541.04414795 15.26307617 541.3382959 13.98193359 541.64135742 C-4.6342817 545.90012192 -23.08680577 547.1811774 -42.11572266 547.13037109 C-44.49778604 547.12500499 -46.87966097 547.13035877 -49.26171875 547.13671875 C-62.69103527 547.14417659 -75.98253345 546.63359066 -89.25 544.375 C-90.25522705 544.20387695 -91.2604541 544.03275391 -92.29614258 543.85644531 C-112.2001339 540.30123235 -131.35559324 534.79817475 -150 527 C-150.73814941 526.69562012 -151.47629883 526.39124023 -152.23681641 526.07763672 C-179.5830722 514.74679391 -204.21936192 498.42814091 -226.5234375 479.08203125 C-228.80294959 477.00133753 -228.80294959 477.00133753 -231 476 C-231 475.34 -231 474.68 -231 474 C-231.66 474 -232.32 474 -233 474 C-233 473.34 -233 472.68 -233 472 C-233.8971875 471.5978125 -233.8971875 471.5978125 -234.8125 471.1875 C-236.99847854 470.00082594 -238.41332594 468.90400887 -240 467 C-240 466.34 -240 465.68 -240 465 C-240.66 465 -241.32 465 -242 465 C-242 464.34 -242 463.68 -242 463 C-242.639375 462.731875 -243.27875 462.46375 -243.9375 462.1875 C-246 461 -246 461 -247 458 C-247.66 458 -248.32 458 -249 458 C-256.76963517 449.77742646 -263.30364768 440.10289251 -270 431 C-270.66128906 430.1028125 -271.32257813 429.205625 -272.00390625 428.28125 C-279.74443933 417.5055659 -286.32152028 405.97946658 -292 394 C-292.84691406 392.24236328 -292.84691406 392.24236328 -293.7109375 390.44921875 C-304.16347641 368.59234638 -311.77869106 345.88619021 -316 322 C-316.14421387 321.1843457 -316.28842773 320.36869141 -316.43701172 319.52832031 C-319.8517535 299.70053956 -320.29922947 280.08709805 -320 260 C-319.99274902 259.2275293 -319.98549805 258.45505859 -319.97802734 257.65917969 C-319.54219696 225.34863539 -311.23809678 190.02381267 -297 161 C-296.35639697 159.59771716 -295.71608113 158.19392334 -295.078125 156.7890625 C-287.06569683 139.2742843 -277.54580439 123.12769062 -266.15405273 107.59960938 C-265.06635535 106.09197382 -264.03121296 104.54681944 -263 103 C-262.34 103 -261.68 103 -261 103 C-260.78472656 102.30261719 -260.56945312 101.60523438 -260.34765625 100.88671875 C-258.65079297 97.25198843 -256.18980092 94.66347496 -253.4375 91.8125 C-249.81023115 88.20855319 -249.81023115 88.20855319 -247 84 C-246.34 84 -245.68 84 -245 84 C-245 83.34 -245 82.68 -245 82 C-242.625 79.375 -242.625 79.375 -240 77 C-239.34 77 -238.68 77 -238 77 C-238 76.34 -238 75.68 -238 75 C-236.390625 73.34375 -236.390625 73.34375 -234.25 71.5 C-233.55390625 70.8915625 -232.8578125 70.283125 -232.140625 69.65625 C-230 68 -230 68 -227.796875 66.96875 C-225.64367081 66.0726576 -225.64367081 66.0726576 -225 63 C-217.56507447 55.85765256 -208.36916405 50.23008015 -199.93261719 44.35400391 C-198.30228033 43.21177952 -196.68476941 42.05128034 -195.0703125 40.88671875 C-189.29182307 36.72362173 -183.32862657 33.26068831 -177 30 C-175.83984375 29.39414063 -174.6796875 28.78828125 -173.484375 28.1640625 C-138.98240882 10.3766987 -102.66376339 0.08736416 -64 -3 C-63.20303711 -3.06461426 -62.40607422 -3.12922852 -61.58496094 -3.19580078 C-40.83050115 -4.7965664 -20.57596633 -2.8407649 0 0 Z M-116 80 C-116.88558594 80.32742187 -117.77117187 80.65484375 -118.68359375 80.9921875 C-137.79321171 88.27511104 -154.9559709 98.37296441 -171 111 C-171.84175781 111.63679688 -172.68351563 112.27359375 -173.55078125 112.9296875 C-199.60286156 133.24951949 -219.90125731 160.77482636 -233 191 C-233.48210937 192.08152344 -233.96421875 193.16304688 -234.4609375 194.27734375 C-247.45224749 224.83098021 -249.44284228 255.22967162 -249 288 C-269.13 288 -289.26 288 -310 288 C-309.18698616 302.59237545 -309.18698616 302.59237545 -307.375 317 C-307.20677734 318.0418042 -307.03855469 319.0836084 -306.86523438 320.15698242 C-303.74397592 338.31493065 -298.79009554 357.54137986 -290.75 374.1875 C-290.1309709 375.47239646 -289.51250244 376.75756315 -288.89453125 378.04296875 C-288.5795166 378.69442871 -288.26450195 379.34588867 -287.93994141 380.01708984 C-287.01277154 381.97305704 -286.1316423 383.94377023 -285.26171875 385.92578125 C-276.73140431 405.14518749 -265.28869921 422.74839426 -252 439 C-251.52949219 439.58475098 -251.05898437 440.16950195 -250.57421875 440.77197266 C-238.66280675 455.51444208 -225.10219268 469.5241697 -210 481 C-209.04867187 481.76828125 -208.09734375 482.5365625 -207.1171875 483.328125 C-187.13267615 499.25563029 -164.05673154 512.36946078 -140 521 C-138.87827393 521.41475586 -138.87827393 521.41475586 -137.73388672 521.83789062 C-121.49208949 527.8415024 -105.35200581 532.44957386 -88.25 535.25 C-87.25718018 535.41330811 -86.26436035 535.57661621 -85.24145508 535.74487305 C-71.85347323 537.80650583 -58.39723451 538.20705365 -44.875 538.1875 C-43.80199142 538.18709213 -43.80199142 538.18709213 -42.70730591 538.18667603 C-25.15810388 538.15618198 -8.16246958 536.70986716 9 533 C9.65323242 532.86368164 10.30646484 532.72736328 10.97949219 532.58691406 C53.35638055 523.68386085 94.86716948 504.1818959 127.41381836 475.39746094 C128.54829297 474.39796384 129.69066316 473.40740019 130.83813477 472.42285156 C142.89319592 462.03850912 154.34042447 450.65802923 164 438 C164.76957031 437.04738281 165.53914063 436.09476562 166.33203125 435.11328125 C179.12117102 419.06140032 188.83025633 401.29955576 198 383 C198.59554688 381.84371094 199.19109375 380.68742187 199.8046875 379.49609375 C207.58701917 363.7000638 212.44905062 346.20045236 216 329 C216.27457031 327.73027344 216.54914062 326.46054687 216.83203125 325.15234375 C219.4561707 312.65213268 221 300.80507459 221 288 C200.87 288 180.74 288 160 288 C160.103125 282.286875 160.20625 276.57375 160.3125 270.6875 C160.42531346 254.23929736 159.05598875 239.01343654 155 223 C154.67974854 221.72745361 154.67974854 221.72745361 154.35302734 220.42919922 C144.88146204 183.88752882 125.24889365 152.25079589 98.875 125.625 C98.13499756 124.87557129 97.39499512 124.12614258 96.63256836 123.35400391 C91.71401437 118.46434091 86.57920243 114.11598695 81 110 C80.30422852 109.48646973 79.60845703 108.97293945 78.89160156 108.44384766 C70.21973085 102.12530227 61.46393744 96.08434937 52 91 C50.39125 90.12601563 50.39125 90.12601563 48.75 89.234375 C39.76892491 84.53972211 30.61784404 81.12646736 21 78 C20.23445801 77.74331543 19.46891602 77.48663086 18.68017578 77.22216797 C-25.11785428 62.61076153 -72.89742428 63.41162701 -116 80 Z " fill="#E32028" transform="translate(364,49)"/>
<path d="M0 0 C20.46 0 40.92 0 62 0 C63.32 8.58 64.64 17.16 66 26 C67.00948664 30.4638605 68.00198804 34.71161572 69.3125 39.0625 C69.61389893 40.0922998 69.91529785 41.12209961 70.22583008 42.18310547 C77.3662223 65.96954867 88.83983236 88.33157682 104 108 C104.76957031 109.0003125 105.53914063 110.000625 106.33203125 111.03125 C124.0261468 133.22062734 144.82883652 150.84163501 170 164 C170.65178223 164.34901367 171.30356445 164.69802734 171.97509766 165.05761719 C185.63703716 172.36148729 199.72491404 177.36855612 214.73046875 181.140625 C218 182 218 182 220.84423828 183.00048828 C238.86101431 188.7068693 260.31143449 187.55245191 279 187 C279.74975098 186.97921387 280.49950195 186.95842773 281.27197266 186.93701172 C308.77350156 186.0150583 336.92074746 176.96287222 361 164 C362.16015625 163.38382813 363.3203125 162.76765625 364.515625 162.1328125 C404.53320403 140.1140076 435.067517 105.42185785 452.90283203 63.57104492 C453.67103191 61.77088628 454.45458139 59.97723627 455.24951172 58.1887207 C458.47039269 50.7902071 460.71246214 43.39416547 462.625 35.5625 C462.91117188 34.45712891 463.19734375 33.35175781 463.4921875 32.21289062 C466.16404538 21.45866267 467.4079999 11.14400071 469 0 C489.46 0 509.92 0 531 0 C531 12.39909297 531 12.39909297 530.265625 17.453125 C530.10578125 18.55954346 529.9459375 19.66596191 529.78125 20.8059082 C529.51828125 22.51073364 529.51828125 22.51073364 529.25 24.25 C529.06953125 25.44004639 528.8890625 26.63009277 528.703125 27.85620117 C527.35117267 36.45435982 525.54364703 44.67080286 523 53 C522.35323294 55.33307469 521.70740967 57.66641121 521.0625 60 C517.31781872 72.90318472 513.01836734 84.98159804 507 97 C506.57299805 97.86189941 506.14599609 98.72379883 505.70605469 99.61181641 C499.00598279 113.06565415 491.7310353 125.76508124 483 138 C482.52095215 138.6811084 482.0419043 139.3622168 481.54833984 140.06396484 C474.43238159 150.13226314 466.5361361 159.20808936 457.92773438 168.02539062 C456.00868825 169.99110048 454.10596312 171.97173835 452.203125 173.953125 C444.32566355 182.07535481 436.11681364 189.30580033 427 196 C426.12794922 196.64727051 426.12794922 196.64727051 425.23828125 197.30761719 C417.09507728 203.33412741 408.7291514 208.8478699 400 214 C398.88238281 214.68449219 397.76476562 215.36898437 396.61328125 216.07421875 C357.45112621 239.56511534 311.19926147 250.2530147 265.875 250.1875 C265.15866394 250.18722809 264.44232788 250.18695618 263.70428467 250.18667603 C251.71124888 250.16587039 239.89079743 249.62713604 228 248 C227.16807129 247.8875293 226.33614258 247.77505859 225.47900391 247.65917969 C211.18040428 245.67394669 197.63234265 242.38618123 183.93652344 237.77587891 C182.00413107 237.12638848 180.06871658 236.48659273 178.1328125 235.84765625 C154.41570793 227.95938147 132.30600379 216.55883919 112 202 C111.32179199 201.52240234 110.64358398 201.04480469 109.94482422 200.55273438 C99.1088944 192.89530943 89.47861002 184.26541481 80 175 C79.39994141 174.42040527 78.79988281 173.84081055 78.18164062 173.24365234 C70.9107923 166.21691408 64.21544553 158.99608669 58 151 C56.81857422 149.52660156 56.81857422 149.52660156 55.61328125 148.0234375 C35.80766223 123.12259699 19.85075837 93.64626793 10.9375 63.0625 C10.69451172 62.24587891 10.45152344 61.42925781 10.20117188 60.58789062 C9.45436013 58.06220104 8.72520445 55.53197209 8 53 C7.74379883 52.12472656 7.48759766 51.24945313 7.22363281 50.34765625 C5.29632115 43.58140699 3.96859772 36.82153273 2.875 29.875 C2.70613281 28.8746875 2.53726563 27.874375 2.36328125 26.84375 C0.91893089 17.81371706 0.54505514 9.26593741 0 0 Z " fill="#FDFAFA" transform="translate(54,337)"/>
<path d="M0 0 C3.26019522 1.35927443 4.67316692 2.56688248 6.375 5.6484375 C6.79652344 6.39609375 7.21804688 7.14375 7.65234375 7.9140625 C8.31943359 9.13222656 8.31943359 9.13222656 9 10.375 C9.97755977 12.11288403 10.95678096 13.84983435 11.9375 15.5859375 C12.69353516 16.93123535 12.69353516 16.93123535 13.46484375 18.30371094 C15.90060411 22.58178622 18.44993368 26.78940609 21 31 C24.89964019 37.46301371 28.73500003 43.95765209 32.5 50.5 C36.14477691 56.83122324 39.85147202 63.11967368 43.625 69.375 C48.5897787 77.60592953 53.46250567 85.88868107 58.3125 94.1875 C63.65355061 103.32529768 69.03741212 112.43407196 74.5 121.5 C79.84992418 130.38293317 85.13675328 139.30091833 90.375 148.25 C90.72850525 148.8538855 91.0820105 149.457771 91.44622803 150.07995605 C94.32754397 155.00329013 97.20545775 159.92861081 100.08325195 164.85400391 C102.59559329 169.15359145 105.1092769 173.45239019 107.625 177.75 C107.97534302 178.34855804 108.32568604 178.94711609 108.68664551 179.56381226 C114.36466308 189.25957669 120.11257305 198.91121063 125.91650391 208.53222656 C127.61637382 211.35164095 129.31007623 214.17461346 131 217 C131.65452148 218.0916748 132.30904297 219.18334961 132.98339844 220.30810547 C133.62567383 221.3910791 134.26794922 222.47405273 134.9296875 223.58984375 C135.51733887 224.57718506 136.10499023 225.56452637 136.71044922 226.58178711 C138 229 138 229 138 231 C47.91 231 -42.18 231 -135 231 C-133.50664636 227.26661591 -132.03978243 224.14438841 -130.05078125 220.703125 C-129.45773193 219.67493652 -128.86468262 218.64674805 -128.25366211 217.58740234 C-127.29278687 215.93538818 -127.29278687 215.93538818 -126.3125 214.25 C-125.63870041 213.08678191 -124.96495457 211.92353268 -124.29125977 210.76025391 C-119.13340531 201.8723469 -113.86229221 193.05425454 -108.55566406 184.25439453 C-104.33248249 177.24470456 -100.17433846 170.20053587 -96.0625 163.125 C-91.06058129 154.51783909 -86.01780107 145.93613608 -80.9375 137.375 C-80.42956909 136.51890137 -80.42956909 136.51890137 -79.91137695 135.64550781 C-78.2364963 132.82272017 -76.56120569 130.0001761 -74.88574219 127.17773438 C-66.58711243 113.19340437 -58.34256738 99.17794914 -50.12722778 85.14459229 C-45.62240492 77.45112623 -41.08444321 69.7807959 -36.4765625 62.1484375 C-32.51666317 55.54860528 -28.65892271 48.88760915 -24.77487183 42.24295044 C-18.80770492 32.03839558 -12.76275711 21.88370864 -6.64599609 11.76806641 C-6.06285645 10.80175293 -5.4797168 9.83543945 -4.87890625 8.83984375 C-4.3691626 7.99800537 -3.85941895 7.15616699 -3.33422852 6.28881836 C-2.13213087 4.22666549 -1.03795906 2.14853508 0 0 Z " fill="#0A94DB" transform="translate(318,168)"/>
<path d="M0 0 C0.77408203 0.10538086 1.54816406 0.21076172 2.34570312 0.31933594 C31.01640342 4.37149701 58.53345458 14.40395881 84 28 C84.9178125 28.47566406 85.835625 28.95132813 86.78125 29.44140625 C92.7377798 32.59011402 98.49428464 36.06450966 104.25 39.5625 C105.00716309 40.02180908 105.76432617 40.48111816 106.54443359 40.9543457 C111.17160641 43.79178219 115.70470261 46.67625797 120 50 C120 50.66 120 51.32 120 52 C120.7425 52.268125 121.485 52.53625 122.25 52.8125 C124.89061949 53.95276751 126.85552844 55.09380306 129 57 C129 57.66 129 58.32 129 59 C129.53109375 59.226875 130.0621875 59.45375 130.609375 59.6875 C133.78994062 61.43369289 136.47998907 63.68061286 139.25 66 C139.80429687 66.45117188 140.35859375 66.90234375 140.9296875 67.3671875 C142.32731582 68.53073029 143.66885563 69.76094738 145 71 C145 71.66 145 72.32 145 73 C145.598125 73.268125 146.19625 73.53625 146.8125 73.8125 C148.99847854 74.99917406 150.41332594 76.09599113 152 78 C152 78.66 152 79.32 152 80 C152.66 80 153.32 80 154 80 C154 80.66 154 81.32 154 82 C154.59296875 82.2578125 155.1859375 82.515625 155.796875 82.78125 C158.17660965 84.09769895 159.50978792 85.42580782 161.25 87.5 C161.77078125 88.1084375 162.2915625 88.716875 162.828125 89.34375 C164 91 164 91 164 93 C164.66 93 165.32 93 166 93 C167.73735056 94.96103061 169.34494576 96.92521283 170.9375 99 C171.42476562 99.63010986 171.91203125 100.26021973 172.4140625 100.90942383 C188.61786599 122.07798523 202.19957866 145.17900162 212 170 C212.38542969 170.91910156 212.77085937 171.83820313 213.16796875 172.78515625 C220.22828214 190.12747944 224.98712853 208.54267513 228 227 C228.22429687 228.31218506 228.22429687 228.31218506 228.453125 229.65087891 C233.12673356 257.94937726 233.06407566 288.76766445 228 317 C227.80132324 318.11197754 227.60264648 319.22395508 227.39794922 320.36962891 C224.30897082 337.07325069 219.8703216 353.06758027 214 369 C213.731875 369.73524902 213.46375 370.47049805 213.1875 371.22802734 C205.95505099 390.83945322 195.57280449 409.62845552 184 427 C183.43418213 427.85464844 183.43418213 427.85464844 182.85693359 428.7265625 C181.64290575 430.55319103 180.41737592 432.37151134 179.1875 434.1875 C178.80207031 434.7652417 178.41664063 435.3429834 178.01953125 435.93823242 C177.06476057 437.32912508 176.03809462 438.67013948 175 440 C174.34 440 173.68 440 173 440 C172.6596875 441.051875 172.6596875 441.051875 172.3125 442.125 C170.66158712 445.74128535 168.7091165 448.08769976 166 451 C165.34 451 164.68 451 164 451 C163.77828125 451.53753906 163.5565625 452.07507813 163.328125 452.62890625 C161.55575648 455.79310535 159.21206035 458.30546477 156.75 460.9375 C155.97003662 461.77607544 155.97003662 461.77607544 155.17431641 462.6315918 C151.04838218 467.00830375 146.76396487 471.20055855 142.375 475.3125 C141.77139648 475.88154053 141.16779297 476.45058105 140.54589844 477.03686523 C136.24702963 481 136.24702963 481 134 481 C133.67 481.99 133.34 482.98 133 484 C131.6081543 485.31518555 131.6081543 485.31518555 129.82421875 486.63671875 C129.16719971 487.1275293 128.51018066 487.61833984 127.83325195 488.12402344 C126.77110474 488.89794434 126.77110474 488.89794434 125.6875 489.6875 C124.96199951 490.2227832 124.23649902 490.75806641 123.48901367 491.30957031 C117.45142785 495.73513736 111.31024288 499.97128311 105 504 C103.49953125 504.96486328 103.49953125 504.96486328 101.96875 505.94921875 C75.93031978 522.35214076 47.64965201 533.69456572 17.75 540.75 C16.50653809 541.04414795 15.26307617 541.3382959 13.98193359 541.64135742 C-4.6342817 545.90012192 -23.08680577 547.1811774 -42.11572266 547.13037109 C-44.49778604 547.12500499 -46.87966097 547.13035877 -49.26171875 547.13671875 C-62.69103527 547.14417659 -75.98253345 546.63359066 -89.25 544.375 C-90.25522705 544.20387695 -91.2604541 544.03275391 -92.29614258 543.85644531 C-112.2001339 540.30123235 -131.35559324 534.79817475 -150 527 C-150.73814941 526.69562012 -151.47629883 526.39124023 -152.23681641 526.07763672 C-179.5830722 514.74679391 -204.21936192 498.42814091 -226.5234375 479.08203125 C-228.80294959 477.00133753 -228.80294959 477.00133753 -231 476 C-231 475.34 -231 474.68 -231 474 C-231.66 474 -232.32 474 -233 474 C-233 473.34 -233 472.68 -233 472 C-233.8971875 471.5978125 -233.8971875 471.5978125 -234.8125 471.1875 C-236.99847854 470.00082594 -238.41332594 468.90400887 -240 467 C-240 466.34 -240 465.68 -240 465 C-240.66 465 -241.32 465 -242 465 C-242 464.34 -242 463.68 -242 463 C-242.639375 462.731875 -243.27875 462.46375 -243.9375 462.1875 C-246 461 -246 461 -247 458 C-247.66 458 -248.32 458 -249 458 C-256.76963517 449.77742646 -263.30364768 440.10289251 -270 431 C-270.66128906 430.1028125 -271.32257813 429.205625 -272.00390625 428.28125 C-279.74443933 417.5055659 -286.32152028 405.97946658 -292 394 C-292.84691406 392.24236328 -292.84691406 392.24236328 -293.7109375 390.44921875 C-304.16347641 368.59234638 -311.77869106 345.88619021 -316 322 C-316.14421387 321.1843457 -316.28842773 320.36869141 -316.43701172 319.52832031 C-319.8517535 299.70053956 -320.29922947 280.08709805 -320 260 C-319.99274902 259.2275293 -319.98549805 258.45505859 -319.97802734 257.65917969 C-319.54219696 225.34863539 -311.23809678 190.02381267 -297 161 C-296.35639697 159.59771716 -295.71608113 158.19392334 -295.078125 156.7890625 C-287.06569683 139.2742843 -277.54580439 123.12769062 -266.15405273 107.59960938 C-265.06635535 106.09197382 -264.03121296 104.54681944 -263 103 C-262.34 103 -261.68 103 -261 103 C-260.78472656 102.30261719 -260.56945312 101.60523438 -260.34765625 100.88671875 C-258.65079297 97.25198843 -256.18980092 94.66347496 -253.4375 91.8125 C-249.81023115 88.20855319 -249.81023115 88.20855319 -247 84 C-246.34 84 -245.68 84 -245 84 C-245 83.34 -245 82.68 -245 82 C-242.625 79.375 -242.625 79.375 -240 77 C-239.34 77 -238.68 77 -238 77 C-238 76.34 -238 75.68 -238 75 C-236.390625 73.34375 -236.390625 73.34375 -234.25 71.5 C-233.55390625 70.8915625 -232.8578125 70.283125 -232.140625 69.65625 C-230 68 -230 68 -227.796875 66.96875 C-225.64367081 66.0726576 -225.64367081 66.0726576 -225 63 C-217.56507447 55.85765256 -208.36916405 50.23008015 -199.93261719 44.35400391 C-198.30228033 43.21177952 -196.68476941 42.05128034 -195.0703125 40.88671875 C-189.29182307 36.72362173 -183.32862657 33.26068831 -177 30 C-175.83984375 29.39414063 -174.6796875 28.78828125 -173.484375 28.1640625 C-138.98240882 10.3766987 -102.66376339 0.08736416 -64 -3 C-63.20303711 -3.06461426 -62.40607422 -3.12922852 -61.58496094 -3.19580078 C-40.83050115 -4.7965664 -20.57596633 -2.8407649 0 0 Z M-123 17 C-123.67482422 17.20173828 -124.34964844 17.40347656 -125.04492188 17.61132812 C-137.501987 21.38790443 -149.28726183 26.33961177 -161 32 C-162.18529297 32.57210205 -162.18529297 32.57210205 -163.39453125 33.15576172 C-180.39808235 41.47777336 -196.55162572 51.74468253 -211 64 C-211.9075 64.72574219 -212.815 65.45148438 -213.75 66.19921875 C-219.53409399 70.82806571 -224.86340318 75.66834254 -230 81 C-232.54900063 83.56996281 -235.11702556 86.11249878 -237.7265625 88.62109375 C-245.24702209 95.88681975 -251.79365118 103.59167557 -258 112 C-258.49000488 112.66161133 -258.98000977 113.32322266 -259.48486328 114.00488281 C-271.2946328 130.06252507 -280.88778033 146.80074824 -289 165 C-289.31565918 165.70060547 -289.63131836 166.40121094 -289.95654297 167.12304688 C-302.96603449 196.26764188 -309.95598193 228.17363219 -310.90771484 260.02050781 C-310.97183169 262.09056584 -311.04859249 264.16025537 -311.13525391 266.22949219 C-312.32604733 296.54925796 -307.33406176 326.15847677 -298 355 C-297.51176758 356.52983521 -297.51176758 356.52983521 -297.01367188 358.09057617 C-295.21139854 363.6373911 -293.28620773 368.93656507 -290.75 374.1875 C-290.1309709 375.47239646 -289.51250244 376.75756315 -288.89453125 378.04296875 C-288.5795166 378.69442871 -288.26450195 379.34588867 -287.93994141 380.01708984 C-287.01277154 381.97305704 -286.1316423 383.94377023 -285.26171875 385.92578125 C-276.73140431 405.14518749 -265.28869921 422.74839426 -252 439 C-251.52949219 439.58475098 -251.05898437 440.16950195 -250.57421875 440.77197266 C-238.66280675 455.51444208 -225.10219268 469.5241697 -210 481 C-209.04867187 481.76828125 -208.09734375 482.5365625 -207.1171875 483.328125 C-187.13267615 499.25563029 -164.05673154 512.36946078 -140 521 C-138.87827393 521.41475586 -138.87827393 521.41475586 -137.73388672 521.83789062 C-121.49208949 527.8415024 -105.35200581 532.44957386 -88.25 535.25 C-87.25718018 535.41330811 -86.26436035 535.57661621 -85.24145508 535.74487305 C-71.85347323 537.80650583 -58.39723451 538.20705365 -44.875 538.1875 C-43.80199142 538.18709213 -43.80199142 538.18709213 -42.70730591 538.18667603 C-25.15810388 538.15618198 -8.16246958 536.70986716 9 533 C9.65323242 532.86368164 10.30646484 532.72736328 10.97949219 532.58691406 C53.35638055 523.68386085 94.86716948 504.1818959 127.41381836 475.39746094 C128.54829297 474.39796384 129.69066316 473.40740019 130.83813477 472.42285156 C142.89319592 462.03850912 154.34042447 450.65802923 164 438 C164.76957031 437.04738281 165.53914063 436.09476562 166.33203125 435.11328125 C179.12117102 419.06140032 188.83025633 401.29955576 198 383 C198.59554688 381.84371094 199.19109375 380.68742187 199.8046875 379.49609375 C207.58964229 363.69473956 212.43384431 346.20145686 216 329 C216.39445313 327.25203125 216.39445313 327.25203125 216.796875 325.46875 C217.62277512 321.6594964 218.34213137 317.84102039 219 314 C219.13825195 313.20964355 219.27650391 312.41928711 219.41894531 311.60498047 C230.62627831 244.82900883 213.00093605 175.35300956 174.8671875 119.8984375 C172.95176581 117.23187005 170.99704301 114.60589759 169 112 C168.36578125 111.17242187 167.7315625 110.34484375 167.078125 109.4921875 C162.74480593 103.96287237 158.12697631 98.74720953 153.36328125 93.5859375 C151.39286124 91.42987462 149.50135018 89.23701117 147.625 87 C128.72097935 65.30031433 103.12953603 48.66712616 78.00610352 35.09912109 C76.06818397 34.03735721 74.15607191 32.93918979 72.24609375 31.828125 C69.68816398 30.38755805 67.29011245 29.17600663 64.5625 28.125 C63.716875 27.79757813 62.87125 27.47015625 62 27.1328125 C61.01 26.75898437 60.02 26.38515625 59 26 C58.39414062 25.77022461 57.78828125 25.54044922 57.1640625 25.30371094 C53.17866076 23.79343271 49.19139835 22.28811262 45.19238281 20.81420898 C43.63557195 20.23603925 42.08324449 19.645733 40.53417969 19.04711914 C-10.38602959 -0.24577551 -71.39901305 1.45210437 -123 17 Z " fill="#080604" transform="translate(364,49)"/>
<path d="M0 0 C0.50688605 2.54046458 1.00566874 5.08208876 1.5 7.625 C1.64308594 8.33785156 1.78617188 9.05070312 1.93359375 9.78515625 C3.96011935 20.30378914 3.96011935 20.30378914 1.125 25.3125 C-1 28 -1 28 -3 29 C-4.79248324 28.96870267 -6.58444453 28.90130771 -8.375 28.8125 C-12.8244512 28.6804946 -12.8244512 28.6804946 -16.5625 30.9375 C-17.036875 31.618125 -17.51125 32.29875 -18 33 C-21.22311015 34.61155508 -24.50556274 34.44352473 -28 34 C-31.3933641 32.41643009 -32.62840526 30.99662019 -33.93359375 27.49609375 C-34.73482492 24.67836693 -35.40145934 21.86713531 -36 19 C-36.226875 17.948125 -36.45375 16.89625 -36.6875 15.8125 C-37.09026575 12.18760825 -37.0186301 8.64777263 -37 5 C-32.5350356 4.28298171 -28.06929892 3.57106007 -23.6027832 2.86376953 C-22.08465865 2.62264326 -20.56675116 2.38014607 -19.04907227 2.13623047 C-16.8627041 1.78509301 -14.67559281 1.43895588 -12.48828125 1.09375 C-11.81412674 0.9843811 -11.13997223 0.87501221 -10.44538879 0.7623291 C-6.92871427 0.21252461 -3.55966816 -0.11975334 0 0 Z " fill="#E6252D" transform="translate(106,349)"/>
<path d="M0 0 C6.824423 4.72826515 9.78515462 8.57841782 11.55078125 16.86328125 C12.09304214 21.96215233 12.15838286 25.66977809 9.80078125 30.30078125 C5.97141959 34.6619987 2.61674624 36.38482155 -2.94921875 38.05078125 C-4.07328125 38.39496094 -5.19734375 38.73914063 -6.35546875 39.09375 C-9.44921875 39.86328125 -9.44921875 39.86328125 -13.44921875 39.86328125 C-23.44921875 10.46328125 -23.44921875 10.46328125 -23.44921875 3.86328125 C-21.07775981 3.01848672 -18.70287751 2.18734842 -16.32421875 1.36328125 C-15.32648438 1.00556641 -15.32648438 1.00556641 -14.30859375 0.640625 C-9.34053737 -1.06410023 -5.00301559 -2.32197374 0 0 Z " fill="#E6272F" transform="translate(384.44921875,529.13671875)"/>
<path d="M0 0 C6.03896918 2.30529512 10.69759065 4.75341722 14.359375 10.24609375 C15.79898204 18.09574058 13.4621156 26.52975543 9.359375 33.24609375 C5.6287184 34.46511855 3.39153025 34.22844049 -0.1875 32.734375 C-1.4559375 32.21520508 -1.4559375 32.21520508 -2.75 31.68554688 C-3.62140625 31.31365234 -4.4928125 30.94175781 -5.390625 30.55859375 C-6.67453125 30.02975586 -6.67453125 30.02975586 -7.984375 29.49023438 C-13.57902443 27.17184556 -19.11777445 24.73003519 -24.640625 22.24609375 C-24.06753839 15.17802552 -20.97687245 7.23428477 -15.953125 2.12109375 C-11.09686878 -1.81641129 -5.90688958 -1.68643445 0 0 Z " fill="#FDF2F2" transform="translate(105.640625,218.75390625)"/>
<path d="M0 0 C4.23356441 2.31249443 4.23356441 2.31249443 6 5 C6.74486561 9.12552601 6.56532403 13.1375716 6.375 17.3125 C6.33439453 18.99569336 6.33439453 18.99569336 6.29296875 20.71289062 C6.22239001 23.47722459 6.12384488 26.23762415 6 29 C1.47918034 29.02917237 -3.04161488 29.0468568 -7.5625 29.0625 C-8.83931641 29.07087891 -10.11613281 29.07925781 -11.43164062 29.08789062 C-13.29272461 29.09272461 -13.29272461 29.09272461 -15.19140625 29.09765625 C-16.89598999 29.10551147 -16.89598999 29.10551147 -18.63500977 29.11352539 C-22.15208567 28.99486905 -25.52771145 28.55780511 -29 28 C-29.11660824 24.60445765 -29.18738372 21.20943321 -29.25 17.8125 C-29.30027344 16.37293945 -29.30027344 16.37293945 -29.3515625 14.90429688 C-29.45025061 7.77408096 -29.45025061 7.77408096 -27.19140625 3.890625 C-24.08157622 1.20763439 -22.08738605 0.93072227 -18 1 C-15.40087849 2.09223783 -13.35914673 3.4111869 -11 5 C-10.71125 4.360625 -10.4225 3.72125 -10.125 3.0625 C-7.86987157 -1.07190213 -4.2957216 -0.42957216 0 0 Z " fill="#FDF6F6" transform="translate(97,295)"/>
<path d="M0 0 C3.10039543 1.75494081 5.48825667 3.48825667 8 6 C8.26991906 8.68839385 8.08737357 11.29141936 8 14 C8.61746094 13.98839844 9.23492188 13.97679687 9.87109375 13.96484375 C15.67525544 13.90300337 21.24338088 14.25721044 27 15 C26.35330586 16.34313399 25.68096422 17.67391178 25 19 C24.66097656 19.90492188 24.32195313 20.80984375 23.97265625 21.7421875 C22 24 22 24 20.01123047 24.34863281 C17.47028697 24.38496908 14.97356445 24.28619848 12.4375 24.125 C10.70771171 24.03080991 8.97716268 23.94944333 7.24609375 23.8828125 C6.47966553 23.83527832 5.7132373 23.78774414 4.92358398 23.73876953 C4.28880127 23.82497559 3.65401855 23.91118164 3 24 C2.34 24.99 1.68 25.98 1 27 C1.515625 27.226875 2.03125 27.45375 2.5625 27.6875 C5.92403127 29.4975553 8.92911144 31.73996404 12 34 C11.27633685 37.34430737 10.18284504 39.34262343 8 42 C4.73279014 40.50462137 2.03921152 38.62978583 -0.80859375 36.4453125 C-1.72060547 35.74792969 -2.63261719 35.05054688 -3.57226562 34.33203125 C-4.51779297 33.60371094 -5.46332031 32.87539063 -6.4375 32.125 C-7.84999023 31.04412109 -7.84999023 31.04412109 -9.29101562 29.94140625 C-13.56156267 26.66842524 -17.80615014 23.37096745 -22 20 C-21.46024986 15.69258221 -18.78243518 12.73778236 -16.1875 9.4375 C-15.74857422 8.86064453 -15.30964844 8.28378906 -14.85742188 7.68945312 C-10.32271265 1.84756174 -7.63697437 -0.9217038 0 0 Z " fill="#E6252D" transform="translate(504,445)"/>
<path d="M0 0 C3.155625 -0.0825 6.31125 -0.165 9.5625 -0.25 C10.5429126 -0.28641602 11.5233252 -0.32283203 12.53344727 -0.36035156 C18.57970488 -0.43636656 22.13783294 0.32052222 27 4 C30.30127661 7.94937999 30.43240845 11.38158902 30.4375 16.4375 C30.46650391 18.35369141 30.46650391 18.35369141 30.49609375 20.30859375 C29.90839406 24.68163477 28.9240326 26.70631661 26 30 C20.40129452 33.33406057 15.45788761 33.37568127 9.0625 33.1875 C4.5765625 33.0946875 4.5765625 33.0946875 0 33 C0 22.11 0 11.22 0 0 Z " fill="#150D04" transform="translate(380,421)"/>
<path d="M0 0 C3.691875 -0.0825 7.38375 -0.165 11.1875 -0.25 C12.92036255 -0.30462402 12.92036255 -0.30462402 14.68823242 -0.36035156 C22.19584037 -0.44174908 22.19584037 -0.44174908 26.20703125 1.76171875 C28.11190867 4.13970298 28.63861981 5.06484669 28.5 8.0625 C28 12 28 12 26.5 14 C26.005 14.33 25.51 14.66 25 15 C26.2375 16.051875 26.2375 16.051875 27.5 17.125 C30 20 30 20 30.5 23 C29.91877388 26.48735673 29.31574981 28.31074215 27 31 C21.16822813 33.22528137 15.74607775 33.23984005 9.5625 33.125 C6.406875 33.08375 3.25125 33.0425 0 33 C0 22.11 0 11.22 0 0 Z " fill="#0F0903" transform="translate(231,421)"/>
<path d="M0 0 C3.691875 -0.103125 7.38375 -0.20625 11.1875 -0.3125 C12.92036255 -0.38078003 12.92036255 -0.38078003 14.68823242 -0.45043945 C22.22709916 -0.55260998 22.22709916 -0.55260998 26.20703125 2.29296875 C28.53126972 5.80211311 28.61186135 7.86993586 28 12 C26.5 13.9375 26.5 13.9375 25 15 C26.2375 16.051875 26.2375 16.051875 27.5 17.125 C30 20 30 20 30.5625 23 C29.85567155 26.76975175 28.77940223 28.3668821 26 31 C20.60028751 33.44674472 15.42274279 33.23168375 9.625 33.125 C6.44875 33.08375 3.2725 33.0425 0 33 C0 22.11 0 11.22 0 0 Z " fill="#0E0903" transform="translate(330,421)"/>
<path d="M0 0 C2.46800047 1.15173355 4.04783565 2.04783565 6 4 C5.69969409 9.06645127 3.01638855 13.76336046 0.9375 18.3125 C0.56044922 19.14845703 0.18339844 19.98441406 -0.20507812 20.84570312 C-1.13211807 22.89927262 -2.06386878 24.95056287 -3 27 C-2.56131592 26.66154053 -2.12263184 26.32308105 -1.6706543 25.97436523 C0.3157255 24.4512902 2.3137808 22.94433973 4.3125 21.4375 C5.00279297 20.90447266 5.69308594 20.37144531 6.40429688 19.82226562 C7.07138672 19.32275391 7.73847656 18.82324219 8.42578125 18.30859375 C9.03848877 17.84251709 9.65119629 17.37644043 10.2824707 16.89624023 C10.84925537 16.60048096 11.41604004 16.30472168 12 16 C15.40424844 17.13474948 16.21653709 17.96811304 18 21 C16.73629192 24.79112423 15.32126903 25.42888784 12.046875 27.65234375 C11.03496094 28.34650391 10.02304688 29.04066406 8.98046875 29.75585938 C7.91441406 30.47580078 6.84835938 31.19574219 5.75 31.9375 C3.6604146 33.36175115 1.57183846 34.78748439 -0.515625 36.21484375 C-1.91216309 37.16025024 -1.91216309 37.16025024 -3.33691406 38.12475586 C-6.05790809 39.98341809 -6.05790809 39.98341809 -8.65527344 42.23657227 C-11 44 -11 44 -14 44 C-16.43281187 41.13275744 -17.03686276 39.58980417 -16.80078125 35.8125 C-15.89443634 31.49741399 -14.38186062 27.98770822 -12.4375 24.0625 C-11.303125 21.731875 -10.16875 19.40125 -9 17 C-13.62 20.3 -18.24 23.6 -23 27 C-27 25 -27 25 -28.25 22.375 C-28.62125 21.199375 -28.62125 21.199375 -29 20 C-25.85538526 17.78992758 -22.7090819 15.58227058 -19.5625 13.375 C-18.68400391 12.75753906 -17.80550781 12.14007813 -16.90039062 11.50390625 C-11.31789776 7.58998136 -5.69201587 3.75292013 0 0 Z " fill="#E6252D" transform="translate(135,437)"/>
<path d="M0 0 C2.97 0.33 5.94 0.66 9 1 C11.34312056 8.66145933 13.44636539 15.97229811 14 24 C14.66 24 15.32 24 16 24 C16.03738281 23.38253906 16.07476562 22.76507812 16.11328125 22.12890625 C16.58723416 16.0232776 17.80600373 10.71266953 20 5 C22.31 5.33 24.62 5.66 27 6 C28.40567385 9.78766869 27.56221811 12.30080219 26.3828125 16.0859375 C26.02316406 17.26414062 25.66351563 18.44234375 25.29296875 19.65625 C24.71482422 21.49703125 24.71482422 21.49703125 24.125 23.375 C23.37438582 25.7984847 22.62688043 28.22293494 21.8828125 30.6484375 C21.54652832 31.72270996 21.21024414 32.79698242 20.86376953 33.90380859 C20.02022061 36.92751899 19.45584882 39.89638565 19 43 C13.04296875 42.90234375 13.04296875 42.90234375 11 42 C8.47859596 37.24812315 7.12315353 32.25921574 5.8125 27.0625 C5.63525391 26.37865234 5.45800781 25.69480469 5.27539062 24.99023438 C4.84532579 23.3280919 4.42194563 21.66422212 4 20 C3.35105763 22.06152389 2.7059736 24.12426258 2.0625 26.1875 C1.70285156 27.33605469 1.34320313 28.48460937 0.97265625 29.66796875 C0.16243964 32.44353006 -0.49134307 35.15687548 -1 38 C-6.75 37.125 -6.75 37.125 -9 36 C-8.40368233 30.1560868 -7.26067575 24.76013559 -5.625 19.125 C-5.29109253 17.9496167 -5.29109253 17.9496167 -4.95043945 16.75048828 C-3.35332617 11.15103344 -1.7060889 5.56723746 0 0 Z " fill="#E6262D" transform="translate(245,525)"/>
<path d="M0 0 C1.67257264 3.78908876 3.33705115 7.58167885 5 11.375 C5.47695312 12.45523437 5.95390625 13.53546875 6.4453125 14.6484375 C6.89648438 15.6796875 7.34765625 16.7109375 7.8125 17.7734375 C8.23144531 18.72653809 8.65039062 19.67963867 9.08203125 20.66162109 C10 23 10 23 10 25 C7.09399739 26.25664978 5.20395416 27 2 27 C0.02 22.38 -1.96 17.76 -4 13 C-5.65 13 -7.3 13 -9 13 C-7.94253042 16.33509638 -6.79178631 19.44727386 -5.3125 22.625 C-4 26 -4 26 -3.9375 28.3125 C-5.59853263 30.95061064 -8.11650709 31.12074584 -11 32 C-12.00460531 29.87717331 -13.00355602 27.75166979 -14 25.625 C-14.556875 24.44164062 -15.11375 23.25828125 -15.6875 22.0390625 C-17 19 -17 19 -17 17 C-19.31 17.66 -21.62 18.32 -24 19 C-23.49339844 20.17755859 -23.49339844 20.17755859 -22.9765625 21.37890625 C-20.64741682 26.8651887 -18.44653232 32.21387072 -17 38 C-19.90600261 39.25664978 -21.79604584 40 -25 40 C-26.67557981 36.23306487 -28.33891867 32.46084826 -30 28.6875 C-30.47695312 27.61564453 -30.95390625 26.54378906 -31.4453125 25.43945312 C-31.89648438 24.41142578 -32.34765625 23.38339844 -32.8125 22.32421875 C-33.23144531 21.37635498 -33.65039062 20.42849121 -34.08203125 19.4519043 C-35 17 -35 17 -35 14 C-30.50072763 11.99914085 -25.99834601 10.00551856 -21.49291992 8.01855469 C-19.96046593 7.34150311 -18.42888265 6.66247717 -16.89819336 5.98144531 C-14.69870956 5.00326321 -12.49619906 4.03220858 -10.29296875 3.0625 C-9.60849167 2.75626709 -8.92401459 2.45003418 -8.21879578 2.13452148 C-5.30291667 0.85837302 -3.21985489 0 0 0 Z " fill="#E62830" transform="translate(117,395)"/>
<path d="M0 0 C3.78496138 1.51398455 4.0072198 2.0144396 6 6 C0.06 11.445 0.06 11.445 -6 17 C-5.34 18.32 -4.68 19.64 -4 21 C2.33523443 16.39353807 2.33523443 16.39353807 8 11 C9.875 11.6875 9.875 11.6875 12 13 C12.7211874 14.64380989 13.39401025 16.31032588 14 18 C12.38050958 19.50594681 10.75424026 21.00460668 9.125 22.5 C8.22007812 23.3353125 7.31515625 24.170625 6.3828125 25.03125 C4 27 4 27 2 27 C2.66 27.78375 3.32 28.5675 4 29.375 C6 32 6 32 6 34 C7.77249524 32.5645497 9.54293576 31.12656197 11.3125 29.6875 C12.29863281 28.88699219 13.28476562 28.08648437 14.30078125 27.26171875 C16.31602166 25.57311644 18.19488009 23.90369301 20 22 C23.47899158 23.39159663 24.48052501 24.63251488 26 28 C21.99817143 32.24767469 17.76553505 36.16495556 13.3125 39.9375 C12.40113281 40.70964844 11.48976563 41.48179687 10.55078125 42.27734375 C8 44 8 44 4 44 C-2.36581625 39.46183902 -7.15990539 32.0387672 -12 26 C-15.02211935 21.94620756 -15.02211935 21.94620756 -19 19 C-19 18.01 -19 17.02 -19 16 C-16.875 13.984375 -16.875 13.984375 -14 11.75 C-9.20639104 7.96100249 -4.56105955 4.06443989 0 0 Z " fill="#E6262E" transform="translate(467,478)"/>
<path d="M0 0 C1.299375 0.268125 2.59875 0.53625 3.9375 0.8125 C7.37474612 1.50684341 10.81600822 2.14659824 14.2734375 2.73046875 C15.02117432 2.85768311 15.76891113 2.98489746 16.53930664 3.1159668 C18.03249791 3.36822648 19.52646744 3.61592994 21.02124023 3.85864258 C24.92304259 4.52038323 28.37076086 5.43723155 32 7 C33.9924325 7.37593066 35.9918674 7.71979545 38 8 C37.34 10.97 36.68 13.94 36 17 C30.57500185 16.30744705 25.32981419 15.22995712 20 14 C19.34 17.63 18.68 21.26 18 25 C19.175625 25.12375 20.35125 25.2475 21.5625 25.375 C25.54120426 25.86435935 29.17766559 26.8055205 33 28 C32.67 30.64 32.34 33.28 32 36 C23.7075324 35.51698406 15.92391983 34.0074953 7.875 32 C6.740625 31.72671875 5.60625 31.4534375 4.4375 31.171875 C-3.85699405 29.14300595 -3.85699405 29.14300595 -5 28 C-4.82364548 25.30917128 -4.38164079 22.67148554 -4 20 C2.93 20.495 2.93 20.495 10 21 C10.66 17.7 11.32 14.4 12 11 C10.411875 10.855625 8.82375 10.71125 7.1875 10.5625 C4.21103374 10.29191216 1.85082796 9.95027599 -1 9 C-0.67 6.03 -0.34 3.06 0 0 Z " fill="#E6282F" transform="translate(533,352)"/>
<path d="M0 0 C2.97 0 5.94 0 9 0 C11.58168513 6.45035956 13.37769433 12.95258629 15.0625 19.6875 C15.57112197 21.71301972 16.08273917 23.73779018 16.59765625 25.76171875 C16.81945557 26.64819092 17.04125488 27.53466309 17.26977539 28.44799805 C17.95625981 31.04066111 17.95625981 31.04066111 19.08764648 33.57739258 C20 36 20 36 20 40 C16.7 39.67 13.4 39.34 10 39 C9.34 36.36 8.68 33.72 8 31 C4.04 31 0.08 31 -4 31 C-4.99 32.98 -5.98 34.96 -7 37 C-9.97 37 -12.94 37 -16 37 C-15.35724788 32.64648742 -13.75413351 28.95606314 -11.875 25.01953125 C-11.56804199 24.36546799 -11.26108398 23.71140472 -10.94482422 23.03752136 C-9.96835126 20.96004971 -8.98428176 18.8862815 -8 16.8125 C-7.33804262 15.40713599 -6.67657904 14.00153929 -6.015625 12.59570312 C-1.47750551 2.95501102 -1.47750551 2.95501102 0 0 Z " fill="#E62930" transform="translate(303,536)"/>
<path d="M0 0 C2.07855269 0.7494706 3.99519056 1.65731818 5.94189453 2.70019531 C5.55789304 9.98611838 5.10447237 16.70361995 2.94189453 23.70019531 C2.4098776 26.96653182 1.94537709 30.23679379 1.50439453 33.51660156 C0.93742506 36.7254913 0.04666238 39.63906772 -1.05810547 42.70019531 C-6.55496081 41.26623305 -6.55496081 41.26623305 -8.55810547 39.01269531 C-9.30348555 35.56531243 -8.19074774 32.97227297 -7.05810547 29.70019531 C-8.17185547 29.26707031 -8.17185547 29.26707031 -9.30810547 28.82519531 C-12.05810547 27.70019531 -12.05810547 27.70019531 -14.05810547 26.51269531 C-16.7527173 25.41800925 -18.32157661 25.8360283 -21.05810547 26.70019531 C-21.71810547 27.36019531 -22.37810547 28.02019531 -23.05810547 28.70019531 C-26.49975867 28.34720524 -28.12683085 27.65437839 -31.05810547 25.70019531 C-31.05810547 24.71019531 -31.05810547 23.72019531 -31.05810547 22.70019531 C-29.07872304 20.92210601 -27.12483918 19.34370346 -24.99560547 17.76269531 C-23.71461473 16.79141288 -22.43470504 15.81870337 -21.15576172 14.84472656 C-20.48561035 14.33635254 -19.81545898 13.82797852 -19.125 13.30419922 C-17.02028861 11.67084772 -14.97135625 9.98517479 -12.92919922 8.27441406 C-11.92675171 7.4418811 -11.92675171 7.4418811 -10.90405273 6.5925293 C-9.60651389 5.51132729 -8.31637478 4.4211725 -7.03442383 3.3215332 C-2.5529845 -0.37189383 -2.5529845 -0.37189383 0 0 Z " fill="#E6262E" transform="translate(214.05810546875,509.2998046875)"/>
<path d="M0 0 C3.06477799 2.01572316 5.65532422 4.47781368 8.3046875 6.99609375 C9.46180097 8.07989555 10.61935795 9.16322404 11.77734375 10.24609375 C12.34984863 10.78363281 12.92235352 11.32117188 13.51220703 11.875 C15.89996305 14.1068352 18.31695902 16.30509982 20.7421875 18.49609375 C21.50660156 19.18832031 22.27101563 19.88054688 23.05859375 20.59375 C25.15038492 22.46748678 25.15038492 22.46748678 27.45703125 24.0546875 C28.02550781 24.50972656 28.59398437 24.96476563 29.1796875 25.43359375 C29.1796875 26.09359375 29.1796875 26.75359375 29.1796875 27.43359375 C23.83389311 30.47097693 23.83389311 30.47097693 20.9921875 30.30859375 C19.1796875 29.43359375 19.1796875 29.43359375 17.7421875 27.80859375 C16.23631414 26.15988145 16.23631414 26.15988145 13.8671875 26.55859375 C10.78722387 27.56137261 8.03290936 28.90745182 5.1796875 30.43359375 C5.1796875 33.40359375 5.1796875 36.37359375 5.1796875 39.43359375 C-0.4453125 42.43359375 -0.4453125 42.43359375 -3.8203125 42.43359375 C-3.94148438 41.20125 -4.06265625 39.96890625 -4.1875 38.69921875 C-5.27556301 27.71550287 -5.27556301 27.71550287 -6.9453125 16.80859375 C-7.8244169 11.93231156 -7.98529006 7.38292045 -7.8203125 2.43359375 C-2.42498378 -0.75455504 -2.42498378 -0.75455504 0 0 Z " fill="#E6252C" transform="translate(423.8203125,510.56640625)"/>
<path d="M0 0 C13.42668441 -0.35541223 26.64005361 0.74164834 40 2 C39.45276317 5.37462715 38.9451 7.08235 37 10 C34.8359375 10.29296875 34.8359375 10.29296875 32.375 10.1875 C31.55773437 10.16042969 30.74046875 10.13335937 29.8984375 10.10546875 C29.27195312 10.07066406 28.64546875 10.03585937 28 10 C27.78730469 10.93005859 27.78730469 10.93005859 27.5703125 11.87890625 C27 14 27 14 25.875 15.9375 C24.69951574 18.70828434 25.05808199 20.17424598 26 23 C26.52851562 23.44859375 27.05703125 23.8971875 27.6015625 24.359375 C29 26 29 26 28.85546875 28.26171875 C28.63503906 29.06222656 28.41460938 29.86273438 28.1875 30.6875 C27.97480469 31.49574219 27.76210938 32.30398438 27.54296875 33.13671875 C27.36378906 33.75160156 27.18460938 34.36648438 27 35 C23.754387 33.57925676 21.6373841 31.86237319 19.171875 29.33203125 C18.45386719 28.60306641 17.73585938 27.87410156 16.99609375 27.12304688 C16.25488281 26.36056641 15.51367188 25.59808594 14.75 24.8125 C9.85490304 19.80002505 4.95895342 14.96431605 -0.45996094 10.5144043 C-2 9 -2 9 -3 6 C-1.5625 2.8125 -1.5625 2.8125 0 0 Z " fill="#E5232B" transform="translate(516,409)"/>
<path d="M0 0 C3.50625 -0.103125 7.0125 -0.20625 10.625 -0.3125 C11.71893066 -0.35802002 12.81286133 -0.40354004 13.93994141 -0.45043945 C22.0182654 -0.56529363 22.0182654 -0.56529363 25.6640625 2.20703125 C28.79417811 5.94956079 28.86791951 7.91778978 28.6015625 12.62109375 C27.5796783 16.66218129 25.4779088 17.84369655 22 20 C18.57067929 21.71466036 14.78283935 21.05404056 11 21 C11 24.96 11 28.92 11 33 C7.37 33 3.74 33 0 33 C0 22.11 0 11.22 0 0 Z " fill="#160E04" transform="translate(281,421)"/>
<path d="M0 0 C2.31 0 4.62 0 7 0 C9.2578125 2.52734375 9.2578125 2.52734375 11.125 5.9375 C12.05699219 7.59072266 12.05699219 7.59072266 13.0078125 9.27734375 C13.66523438 10.50582031 14.32265625 11.73429687 15 13 C17.475 17.455 17.475 17.455 20 22 C20.33 15.07 20.66 8.14 21 1 C23.31 1 25.62 1 28 1 C28 12.88 28 24.76 28 37 C25.36 37 22.72 37 20 37 C17.99304709 33.54565686 15.99563221 30.0858937 14 26.625 C13.42765625 25.64015625 12.8553125 24.6553125 12.265625 23.640625 C11.72421875 22.69960937 11.1828125 21.75859375 10.625 20.7890625 C9.87089844 19.48509521 9.87089844 19.48509521 9.1015625 18.15478516 C8 16 8 16 8 14 C7.34 14 6.68 14 6 14 C6 21.26 6 28.52 6 36 C4.02 36 2.04 36 0 36 C0 24.12 0 12.24 0 0 Z " fill="#FDF0F0" transform="translate(309,69)"/>
<path d="M0 0 C1.57247211 4.50032696 3.13888352 9.00269981 4.69970703 13.50708008 C5.23157201 15.03923413 5.76509085 16.5708151 6.30029297 18.10180664 C7.06913435 20.30206236 7.83201147 22.50430801 8.59375 24.70703125 C8.83436157 25.39150833 9.07497314 26.07598541 9.32287598 26.78120422 C10.31225239 29.65837218 11 31.93309937 11 35 C7.77617182 36.09488504 6.29353048 36.55410025 3 36 C-1.08473898 33.08816464 -4.47876357 29.55780713 -8 26 C-9.38078236 24.77449593 -10.77391916 23.56252236 -12.1875 22.375 C-13.115625 21.59125 -14.04375 20.8075 -15 20 C-14.54287762 21.54202616 -14.08423653 23.08360214 -13.625 24.625 C-13.21701172 25.99591797 -13.21701172 25.99591797 -12.80078125 27.39453125 C-12.18941287 29.38371519 -11.51476207 31.35355844 -10.8125 33.3125 C-9.98643235 36.04487762 -9.75690502 38.16389187 -10 41 C-11 42 -11 42 -13.5625 42.0625 C-14.366875 42.041875 -15.17125 42.02125 -16 42 C-16.30292969 41.09121094 -16.60585937 40.18242188 -16.91796875 39.24609375 C-17.11825684 38.64587402 -17.31854492 38.0456543 -17.52490234 37.42724609 C-17.97079756 36.0882461 -18.41510523 34.74871652 -18.85791016 33.40869141 C-20.02915331 29.87185074 -21.22465682 26.34762855 -22.48046875 22.83984375 C-22.71419189 22.17476807 -22.94791504 21.50969238 -23.1887207 20.82446289 C-23.84472711 18.96099397 -24.51194094 17.10148181 -25.1796875 15.2421875 C-26.00858758 11.96605863 -25.97564668 10.19193049 -25 7 C-22.3125 6.1875 -22.3125 6.1875 -19 6 C-16.6796875 8.12890625 -16.6796875 8.12890625 -14 11 C-11.96560597 12.94720096 -9.88781369 14.84656025 -7.8125 16.75 C-7.27947266 17.24371094 -6.74644531 17.73742187 -6.19726562 18.24609375 C-3.31919406 20.929262 -3.31919406 20.929262 0 23 C-0.34933594 21.90300781 -0.69867188 20.80601563 -1.05859375 19.67578125 C-1.51836664 18.22139762 -1.97799441 16.76696811 -2.4375 15.3125 C-2.66759766 14.59126953 -2.89769531 13.87003906 -3.13476562 13.12695312 C-4.2969767 9.43819625 -5.34442773 5.82040393 -6 2 C-3 0 -3 0 0 0 Z " fill="#FDEFF0" transform="translate(254,78)"/>
<path d="M0 0 C1.75 2.125 1.75 2.125 3 5 C1.66607454 10.46744756 -1.080592 15.38955057 -3.625 20.375 C-4.04523437 21.20644531 -4.46546875 22.03789062 -4.8984375 22.89453125 C-5.92866075 24.93156359 -6.96258821 26.96662189 -8 29 C-3.60996471 26.52272665 0.69409416 23.97416177 4.9375 21.25 C5.89527344 20.63640625 6.85304688 20.0228125 7.83984375 19.390625 C8.55269531 18.93171875 9.26554688 18.4728125 10 18 C11.32 19.32 12.64 20.64 14 22 C12.56800083 26.29599751 9.33878401 27.53611856 5.625 29.75 C4.16498619 30.63739858 2.70535248 31.5254228 1.24609375 32.4140625 C0.52534668 32.85008789 -0.19540039 33.28611328 -0.93798828 33.73535156 C-4.63920472 36.00533749 -8.24745835 38.4171469 -11.86328125 40.8203125 C-14 42 -14 42 -17 42 C-19.1296999 38.80545016 -19.2650939 37.74557721 -18.60986328 34.07763672 C-17.35062346 29.78775247 -15.09111522 25.95796632 -12.9375 22.0625 C-12.46505859 21.18787109 -11.99261719 20.31324219 -11.50585938 19.41210938 C-10.34667254 17.26937008 -9.17796683 15.13245471 -8 13 C-8.5347998 13.36351562 -9.06959961 13.72703125 -9.62060547 14.1015625 C-12.03553385 15.73915793 -14.4551761 17.36964824 -16.875 19 C-17.71675781 19.57234375 -18.55851562 20.1446875 -19.42578125 20.734375 C-20.23144531 21.27578125 -21.03710938 21.8171875 -21.8671875 22.375 C-22.98262939 23.12910156 -22.98262939 23.12910156 -24.12060547 23.8984375 C-26 25 -26 25 -28 25 C-31 21.53846154 -31 21.53846154 -31 19 C-28.63285916 17.39253209 -26.26665898 15.90155002 -23.8125 14.4375 C-17.17612872 10.40217009 -10.7872935 6.14274894 -4.4765625 1.6171875 C-2 0 -2 0 0 0 Z " fill="#FDF1F2" transform="translate(526,175)"/>
<path d="M0 0 C11.88 0 23.76 0 36 0 C36 7 36 7 34.39526367 8.77270508 C33.29275269 9.38988403 33.29275269 9.38988403 32.16796875 10.01953125 C31.36939453 10.48423828 30.57082031 10.94894531 29.74804688 11.42773438 C28.90306641 11.88470703 28.05808594 12.34167969 27.1875 12.8125 C26.35412109 13.28880859 25.52074219 13.76511719 24.66210938 14.25585938 C23.11256925 15.14077747 21.5567272 16.01481343 19.99291992 16.87426758 C18.28327638 17.83998684 16.63376518 18.91082321 15 20 C22.26 20.33 29.52 20.66 37 21 C37 22.98 37 24.96 37 27 C24.99494383 28.14724086 13.04750524 28.1063689 1 28 C0.6875 24.7578125 0.6875 24.7578125 1 21 C3.125 18.7421875 3.125 18.7421875 6 16.875 C6.928125 16.25367188 7.85625 15.63234375 8.8125 14.9921875 C12.54166667 12.66145833 16.27083333 10.33072917 20 8 C13.4 7.67 6.8 7.34 0 7 C0 4.69 0 2.38 0 0 Z " fill="#FDF2F2" transform="translate(535,296)"/>
<path d="M0 0 C3.86917491 0.40817669 5.80955467 2.3876499 8.5625 5 C13.10981545 9.22347102 17.81391513 13.17002107 22.65234375 17.0546875 C24.55178936 18.62860416 26.30080455 20.21668596 28 22 C26.84826645 24.46800047 25.95216435 26.04783565 24 28 C21.26888169 27.78549845 18.69250507 27.45615409 16 27 C15.22785156 26.87737793 14.45570313 26.75475586 13.66015625 26.62841797 C11.27107391 26.24445831 8.88543058 25.84348941 6.5 25.4375 C5.67757812 25.29892578 4.85515625 25.16035156 4.0078125 25.01757812 C2.00495459 24.67988697 0.00244041 24.34015815 -2 24 C-1.01257813 24.81984375 -0.02515625 25.6396875 0.9921875 26.484375 C2.28675582 27.57256286 3.58101031 28.66112414 4.875 29.75 C5.52597656 30.28882813 6.17695313 30.82765625 6.84765625 31.3828125 C7.47285156 31.91132813 8.09804687 32.43984375 8.7421875 32.984375 C9.3182373 33.46616211 9.89428711 33.94794922 10.48779297 34.44433594 C12.15731456 36.16183538 13.04070334 37.8179089 14 40 C13.01 40.99 12.02 41.98 11 43 C6.79488447 41.27642178 3.68926378 38.33069143 0.3125 35.375 C-0.30383301 34.84100586 -0.92016602 34.30701172 -1.55517578 33.75683594 C-6.40608798 29.54536792 -11.22380438 25.29604897 -16 21 C-15.42655063 18.13275314 -15.1385485 17.1385485 -13 15 C-4.16297416 14.71924729 4.5051867 16.7894021 13 19 C13 18.34 13 17.68 13 17 C12.44570312 16.76410156 11.89140625 16.52820313 11.3203125 16.28515625 C8.43552758 14.6873545 6.28827968 12.68148991 3.875 10.4375 C0.68492491 7.36280814 0.68492491 7.36280814 -3 5 C-1.125 1.125 -1.125 1.125 0 0 Z " fill="#FDF2F2" transform="translate(137,147)"/>
<path d="M0 0 C5.61432905 2.02552889 11.13690346 4.53408842 14 10 C14.25 13.8125 14.25 13.8125 14 17 C7.125 16.125 7.125 16.125 6 15 C5.95936168 13.33382885 5.957279 11.66611905 6 10 C1.80611199 7.903056 -2.3882875 6.90995886 -7 8 C-10.09422572 10.4099989 -11.76131863 13.28395589 -13 17 C-13.37032807 21.99942891 -13.0799137 24.97242055 -10 29 C-7.70370006 30.14814997 -5.92301914 30.30769809 -3.375 30.5625 C-2.55773437 30.64628906 -1.74046875 30.73007813 -0.8984375 30.81640625 C0.04128906 30.90728516 0.04128906 30.90728516 1 31 C1.33 29.35 1.66 27.7 2 26 C0.02 25.34 -1.96 24.68 -4 24 C-4 22.35 -4 20.7 -4 19 C-0.32317186 17.77439062 0.58169621 18.38835332 4.0625 19.875 C4.94035156 20.24367188 5.81820313 20.61234375 6.72265625 20.9921875 C8.16297008 21.62958196 9.59123441 22.2956172 11 23 C10.54636829 24.58468677 10.08688548 26.16769924 9.625 27.75 C9.24214844 29.07257813 9.24214844 29.07257813 8.8515625 30.421875 C8.07235106 32.78095552 7.26171708 34.86182297 6 37 C1.52615613 39.23692193 -4.67594089 38.70682128 -9.36328125 37.28125 C-14.91609678 34.68784463 -17.63942816 31.04085776 -21 26 C-22.05880772 19.20133988 -21.16021347 13.75790346 -17.50390625 7.9453125 C-12.82070338 1.88755917 -7.77063561 -1.14501088 0 0 Z " fill="#FDEDEE" transform="translate(407,84)"/>
<path d="M0 0 C4.06925162 1.88425377 7.7752203 4.09908009 10.23828125 7.921875 C11.09296686 10.25363267 11.23416271 12.02263405 11.1875 14.5 C11.18105469 15.2528125 11.17460937 16.005625 11.16796875 16.78125 C11.00303563 18.95990143 10.59600906 20.90204811 10 23 C4.25 21.25 4.25 21.25 2 19 C1.66330615 16.95426522 1.55930828 14.94399048 1.44140625 12.875 C1.1294203 10.59314755 1.1294203 10.59314755 -2 9 C-4.37124598 8.41511438 -4.37124598 8.41511438 -7 9 C-10.96636427 11.77645499 -14.14658405 14.42097235 -16 19 C-15.95785562 23.34673618 -15.95785562 23.34673618 -14 27 C-10.47362528 27.15672777 -7.38094149 27.04028969 -4 26 C-1 30.32 -1 30.32 -1 33.1875 C-2 35 -2 35 -4.0625 36.25 C-9.4613759 37.6284364 -13.30196411 37.84901794 -18.25 35.375 C-22.17213338 31.98770299 -24.5927616 29.49257984 -25.453125 24.2265625 C-25.81035732 17.78014285 -25.08965434 13.64253428 -20.79296875 8.75390625 C-14.13054083 2.23662926 -9.72478138 -1.48015876 0 0 Z " fill="#E6262E" transform="translate(172,479)"/>
<path d="M0 0 C3.37953284 1.42082462 5.75477595 3.09256099 8 6 C8.91142911 8.53681103 9 10.25580964 9 13 C5.6875 13.3125 5.6875 13.3125 2 13 C0.125 10.5625 0.125 10.5625 -1 8 C-2.56918492 6.43081508 -4.14085159 6.71741057 -6.3125 6.625 C-10.00802278 6.65437617 -10.66634664 6.69137064 -13.5 9.3125 C-16.01024964 13.81003061 -16.58498684 17.91358901 -16 23 C-14.84367254 25.36293002 -13.85016245 27.14983755 -12 29 C-9.98035801 29.07244053 -7.95832876 29.08377188 -5.9375 29.0625 C-4.83277344 29.05347656 -3.72804688 29.04445313 -2.58984375 29.03515625 C-1.73519531 29.02355469 -0.88054687 29.01195313 0 29 C0 27.35 0 25.7 0 24 C-2.31 23.67 -4.62 23.34 -7 23 C-7 21.02 -7 19.04 -7 17 C-5.4372038 17.14262412 -3.87477304 17.28925511 -2.3125 17.4375 C-1.00732422 17.55931641 -1.00732422 17.55931641 0.32421875 17.68359375 C2.92289271 17.9908822 5.44244733 18.45162384 8 19 C7.88590318 21.10478604 7.75834639 23.20884577 7.625 25.3125 C7.55539062 26.48425781 7.48578125 27.65601563 7.4140625 28.86328125 C7 32 7 32 5 35 C-0.43803855 37.78946019 -6.0351 37.74271128 -12 37 C-17.01040423 35.18686503 -20.99060566 32.02367235 -23.375 27.1484375 C-25.16382722 20.99934392 -24.98739742 14.34110253 -22.3125 8.5 C-17.12707898 -0.37611214 -9.51796098 -1.15369224 0 0 Z " fill="#FDEFEF" transform="translate(370,73)"/>
<path d="M0 0 C4.47870656 2.15937638 7.18198188 4.92952939 10 9 C11.58239331 13.74717992 12.13248574 19.26807941 10.17578125 23.98828125 C9.125 25.625 9.125 25.625 7 28 C6.34 28 5.68 28 5 28 C3.3125 26.25 3.3125 26.25 2 24 C2.28854974 22.65626344 2.62880332 21.32329207 3 20 C3.67293939 14.16538138 3.67293939 14.16538138 1.5625 8.9375 C-2.97169343 7.27864875 -7.51683716 7.04421657 -12.0703125 8.796875 C-15.23216605 10.51671166 -16.99136521 11.98704782 -19 15 C-19.70157408 20.26180564 -18.15921695 22.85352775 -15 27 C-13.35 26.67 -11.7 26.34 -10 26 C-10.66 23.69 -11.32 21.38 -12 19 C-10.02 18.34 -8.04 17.68 -6 17 C-5.13153169 18.74294678 -4.28069373 20.49468663 -3.4375 22.25 C-2.96183594 23.22453125 -2.48617187 24.1990625 -1.99609375 25.203125 C-1 28 -1 28 -1.05078125 30.21484375 C-2.43315512 32.81461683 -4.03520972 33.27236585 -6.75 34.3125 C-7.61109375 34.65925781 -8.4721875 35.00601563 -9.359375 35.36328125 C-12.37058282 36.08935651 -14.06612888 35.94890881 -17 35 C-22.02551266 31.65351807 -24.72251159 26.79620773 -26 21 C-26.62780318 16.43486328 -26.46177887 13.07048738 -24.625 8.8125 C-17.64339579 1.33220978 -10.22241465 -1.72835623 0 0 Z " fill="#FDF0F1" transform="translate(544,216)"/>
<path d="M0 0 C3.70390021 2.02666238 5.65363011 3.48044516 8 7 C8.76196672 13.63999566 8.76196672 13.63999566 7.01953125 16.75 C4.71295545 19.58886253 2.10800393 22.07089411 -1 24 C-1.66 24 -2.32 24 -3 24 C-2.65066406 24.60328125 -2.30132812 25.2065625 -1.94140625 25.828125 C-1.48636719 26.62734375 -1.03132813 27.4265625 -0.5625 28.25 C0.11619141 29.43335938 0.11619141 29.43335938 0.80859375 30.640625 C1.90591138 32.81367368 2.66790131 34.59228453 3 37 C1.5625 38.75 1.5625 38.75 0 40 C-3.91456215 38.49364783 -5.49974859 36.27144198 -7.8203125 32.84375 C-8.52027344 31.82152344 -9.22023437 30.79929688 -9.94140625 29.74609375 C-10.66199219 28.67488281 -11.38257813 27.60367188 -12.125 26.5 C-13.56346942 24.38430427 -15.00349802 22.26966753 -16.4453125 20.15625 C-17.07969238 19.21587891 -17.71407227 18.27550781 -18.36767578 17.30664062 C-19.93928598 14.94822296 -19.93928598 14.94822296 -22 13 C-22.0390625 11.171875 -22.0390625 11.171875 -21 9 C-18.81105895 7.22772065 -16.74054986 5.74121932 -14.375 4.25 C-13.77042969 3.83878906 -13.16585937 3.42757812 -12.54296875 3.00390625 C-8.26301618 0.25707102 -5.20866201 -0.60799063 0 0 Z " fill="#FDF2F2" transform="translate(183,114)"/>
<path d="M0 0 C-0.66 2.64 -1.32 5.28 -2 8 C-4.97 8 -7.94 8 -11 8 C-11.66 12.62 -12.32 17.24 -13 22 C-11.02 23.32 -9.04 24.64 -7 26 C-7.33 28.31 -7.66 30.62 -8 33 C-11.61143798 32.3632712 -13.9960897 30.83794232 -16.9921875 28.76171875 C-17.94480469 28.10623047 -18.89742187 27.45074219 -19.87890625 26.77539062 C-20.86761719 26.08638672 -21.85632813 25.39738281 -22.875 24.6875 C-24.83061397 23.33707275 -26.78634003 21.98680779 -28.7421875 20.63671875 C-29.65452148 20.00427246 -30.56685547 19.37182617 -31.50683594 18.72021484 C-34.31742828 16.78098319 -37.14926711 14.879551 -40 13 C-39.125 5.125 -39.125 5.125 -38 4 C-35.61837254 3.62628112 -33.25240182 3.30841421 -30.859375 3.02734375 C-30.14017883 2.93997452 -29.42098267 2.85260529 -28.67999268 2.7625885 C-27.1536109 2.57817085 -25.62696891 2.39589637 -24.10009766 2.21557617 C-21.77306537 1.94022922 -19.4470665 1.6571898 -17.12109375 1.37304688 C-15.63807639 1.19484951 -14.15500503 1.01710086 -12.671875 0.83984375 C-11.97898376 0.75548569 -11.28609253 0.67112762 -10.57220459 0.58421326 C-7.02787997 0.16965124 -3.56874637 -0.09271151 0 0 Z " fill="#FDF0F1" transform="translate(113,258)"/>
<path d="M0 0 C1.57397461 1.79077148 1.57397461 1.79077148 2.90234375 4.12109375 C3.40056641 4.97509766 3.89878906 5.82910156 4.41210938 6.70898438 C5.16717773 8.05959961 5.16717773 8.05959961 5.9375 9.4375 C6.43701172 10.30310547 6.93652344 11.16871094 7.45117188 12.06054688 C8.46125617 13.81092522 9.46435102 15.56535536 10.46044922 17.32373047 C12.53214529 20.9250518 14.71081417 24.45804133 16.90063477 27.98852539 C18 30 18 30 18 32 C14.535 32.495 14.535 32.495 11 33 C9.68 31.02 8.36 29.04 7 27 C2.05 27.33 -2.9 27.66 -8 28 C-7.979375 29.299375 -7.95875 30.59875 -7.9375 31.9375 C-7.91600546 33.29165633 -7.92851801 34.64756083 -8 36 C-9 37 -9 37 -12.0625 37.0625 C-13.031875 37.041875 -14.00125 37.02125 -15 37 C-15.10165032 32.26969668 -14.78252276 27.91505153 -13.94140625 23.26171875 C-13.72033203 22.03001953 -13.49925781 20.79832031 -13.27148438 19.52929688 C-13.03751953 18.26150391 -12.80355469 16.99371094 -12.5625 15.6875 C-12.33240234 14.40037109 -12.10230469 13.11324219 -11.86523438 11.78710938 C-10.13976698 2.27953396 -10.13976698 2.27953396 -9 0 C-5.74637162 -1.27821115 -3.30768959 -1.01166292 0 0 Z " fill="#FDF1F1" transform="translate(285,73)"/>
<path d="M0 0 C1.875 1.25 1.875 1.25 3.875 3.25 C3.56075029 7.79307988 1.36756437 11.56554405 -0.72265625 15.51953125 C-1.07637802 16.20053391 -1.43009979 16.88153656 -1.79454041 17.58317566 C-2.91967727 19.74605966 -4.0534339 21.90428682 -5.1875 24.0625 C-5.95435042 25.53290371 -6.72063283 27.00360381 -7.48632812 28.47460938 C-9.35932469 32.06987189 -11.24006221 35.66098469 -13.125 39.25 C-14.775 37.93 -16.425 36.61 -18.125 35.25 C-17.17438272 29.41049383 -17.17438272 29.41049383 -16.375 26.8125 C-15.85054518 24.17043705 -15.85054518 24.17043705 -17.55859375 22.01171875 C-18.21988281 21.32722656 -18.88117188 20.64273438 -19.5625 19.9375 C-20.22121094 19.24011719 -20.87992187 18.54273438 -21.55859375 17.82421875 C-22.07550781 17.30472656 -22.59242188 16.78523438 -23.125 16.25 C-26.7193028 16.93021284 -26.7193028 16.93021284 -30.1875 18.0625 C-30.826875 18.124375 -31.46625 18.18625 -32.125 18.25 C-34.375 16.3125 -34.375 16.3125 -36.125 14.25 C-35.795 13.26 -35.465 12.27 -35.125 11.25 C-33.0859375 10.40625 -33.0859375 10.40625 -30.5 9.75 C-26.17426799 8.57081034 -22.24755509 7.0269634 -18.125 5.25 C-15.05821251 4.20478049 -11.98069297 3.20130622 -8.89453125 2.21484375 C-6.16175294 1.33869738 -6.16175294 1.33869738 -3.89453125 0.08203125 C-2.125 -0.75 -2.125 -0.75 0 0 Z " fill="#FDF2F2" transform="translate(506.125,151.75)"/>
<path d="M0 0 C8.55024399 0.68771587 17.09233829 1.43199158 25.625 2.3125 C26.79417969 2.41755859 27.96335937 2.52261719 29.16796875 2.63085938 C30.83666016 2.8077832 30.83666016 2.8077832 32.5390625 2.98828125 C33.54146973 3.08665283 34.54387695 3.18502441 35.57666016 3.28637695 C38 4 38 4 39.40380859 5.75073242 C40.16209342 8.61153426 39.97736163 10.20825564 39 13 C37.39282227 14.64990234 37.39282227 14.64990234 35.31640625 16.0859375 C34.55787354 16.62138184 33.79934082 17.15682617 33.01782227 17.70849609 C32.20756592 18.25844238 31.39730957 18.80838867 30.5625 19.375 C29.74515381 19.94428223 28.92780762 20.51356445 28.08569336 21.10009766 C26.46447019 22.22831071 24.83962214 23.3513353 23.2109375 24.46875 C21.34413822 25.76165692 19.50833338 27.08116493 17.6875 28.4375 C16.82125 29.076875 15.955 29.71625 15.0625 30.375 C14.33160156 30.91898437 13.60070312 31.46296875 12.84765625 32.0234375 C12.23792969 32.34570312 11.62820313 32.66796875 11 33 C10.01 32.67 9.02 32.34 8 32 C7.67 30.02 7.34 28.04 7 26 C8.98 24.68 10.96 23.36 13 22 C12.855625 20.989375 12.71125 19.97875 12.5625 18.9375 C12.04166667 15.29166667 11.52083333 11.64583333 11 8 C7.7 8 4.4 8 1 8 C0.67 5.36 0.34 2.72 0 0 Z " fill="#FDF5F5" transform="translate(526,258)"/>
<path d="M0 0 C7.86235798 1.38879536 15.68509256 2.92873833 23.5 4.5625 C24.56992188 4.78357422 25.63984375 5.00464844 26.7421875 5.23242188 C27.76570313 5.44576172 28.78921875 5.65910156 29.84375 5.87890625 C30.76349609 6.0704126 31.68324219 6.26191895 32.63085938 6.45922852 C35 7 35 7 38 8 C36.125 12.875 36.125 12.875 35 14 C33.30858344 13.91036938 31.62040398 13.75422324 29.9375 13.5625 C29.01839844 13.46066406 28.09929687 13.35882813 27.15234375 13.25390625 C26.44207031 13.17011719 25.73179687 13.08632812 25 13 C24.731875 13.7425 24.46375 14.485 24.1875 15.25 C23 18 23 18 21.3125 20 C19.73094496 21.96901485 19.73094496 21.96901485 20.1875 24.625 C20.85676551 27.15020365 20.85676551 27.15020365 23 29 C22.70610368 32.82065222 21.75605439 34.45194972 19 37 C18.23816406 35.98421875 17.47632812 34.9684375 16.69140625 33.921875 C16.19552002 33.2609082 15.69963379 32.59994141 15.1887207 31.91894531 C14.09918371 30.46579314 13.01048713 29.01201048 11.92260742 27.55761719 C9.37878514 24.15885772 6.82888036 20.76653447 4.234375 17.40625 C3.03554687 15.84390625 3.03554687 15.84390625 1.8125 14.25 C1.09707031 13.32703125 0.38164063 12.4040625 -0.35546875 11.453125 C-1.88619239 9.16976527 -2.7465177 7.71917381 -3 5 C-1.5625 2.25 -1.5625 2.25 0 0 Z " fill="#FDF3F4" transform="translate(106,186)"/>
<path d="M0 0 C0.33 1.65 0.66 3.3 1 5 C-1.28874173 6.33858524 -3.58069656 7.67101014 -5.875 9 C-6.52597656 9.3815625 -7.17695313 9.763125 -7.84765625 10.15625 C-12.7734375 13 -12.7734375 13 -15 13 C-14.2575 14.175625 -14.2575 14.175625 -13.5 15.375 C-12 18 -12 18 -12 20 C-11.02417969 19.4946875 -10.04835937 18.989375 -9.04296875 18.46875 C-7.7579742 17.81218344 -6.47280899 17.1559508 -5.1875 16.5 C-4.54490234 16.16613281 -3.90230469 15.83226563 -3.24023438 15.48828125 C-0.30452301 13.99760916 1.66126517 13 5 13 C5.33 14.98 5.66 16.96 6 19 C4.04414675 20.00484204 2.08523763 21.00373805 0.125 22 C-0.96554688 22.556875 -2.05609375 23.11375 -3.1796875 23.6875 C-6 25 -6 25 -8 25 C-6.515 29.455 -6.515 29.455 -5 34 C-3.87980469 33.4225 -2.75960937 32.845 -1.60546875 32.25 C-0.1329735 31.49968395 1.33969164 30.74970125 2.8125 30 C3.55048828 29.6184375 4.28847656 29.236875 5.04882812 28.84375 C5.76103516 28.4828125 6.47324219 28.121875 7.20703125 27.75 C7.8616333 27.41484375 8.51623535 27.0796875 9.19067383 26.734375 C11 26 11 26 14 26 C14.66 27.98 15.32 29.96 16 32 C12.59264572 33.7068007 9.17282773 35.38697424 5.75 37.0625 C4.78191406 37.54783203 3.81382812 38.03316406 2.81640625 38.53320312 C1.88183594 38.98759766 0.94726562 39.44199219 -0.015625 39.91015625 C-0.87446289 40.33433838 -1.73330078 40.75852051 -2.61816406 41.19555664 C-5 42 -5 42 -7.09570312 41.99707031 C-10.08751444 40.4305886 -10.92828418 38.10364193 -12.453125 35.13671875 C-12.75820984 34.54832718 -13.06329468 33.95993561 -13.37762451 33.35371399 C-14.01938234 32.10871904 -14.65442853 30.86024477 -15.28320312 29.60864258 C-16.24524477 27.69694921 -17.22999361 25.79837942 -18.21875 23.90039062 C-23 14.57013907 -23 14.57013907 -23 10 C-19.73408178 8.32356962 -16.46150893 6.66056656 -13.1875 5 C-12.25873047 4.52304688 -11.32996094 4.04609375 -10.37304688 3.5546875 C-9.48037109 3.10351562 -8.58769531 2.65234375 -7.66796875 2.1875 C-6.84578857 1.76855469 -6.0236084 1.34960938 -5.17651367 0.91796875 C-3 0 -3 0 0 0 Z " fill="#FDF2F3" transform="translate(216,92)"/>
<path d="M0 0 C1.98 0.66 3.96 1.32 6 2 C5.36759988 5.08549015 4.32256021 7.41647432 2.71484375 10.1171875 C2.26689453 10.88933594 1.81894531 11.66148438 1.35742188 12.45703125 C0.41320974 14.06491931 -0.53729378 15.66912984 -1.49414062 17.26953125 C-4.00082131 21.61733816 -5.84250284 24.81781269 -5 30 C-2.95451831 32.27275743 -1.5956905 32.89133984 1.3984375 33.4375 C4.25056578 33.25228249 4.25056578 33.25228249 6.02734375 30.5078125 C6.97287109 28.83332031 6.97287109 28.83332031 7.9375 27.125 C8.27523438 26.54016846 8.61296875 25.95533691 8.9609375 25.3527832 C9.65153626 24.15579964 10.33498111 22.9546603 11.01123047 21.74951172 C12.4541314 19.19646776 13.97862822 16.69434665 15.5 14.1875 C16.33411432 12.79213322 17.16777691 11.39649557 18 10 C19.98 10.66 21.96 11.32 24 12 C22.93472542 17.14149054 20.24878534 21.4330294 17.75 26 C17.27175781 26.90234375 16.79351562 27.8046875 16.30078125 28.734375 C13.06522474 34.66184438 10.44754667 38.9592312 3.6875 41 C-1.78157422 41 -5.42683158 39.10701472 -9.6171875 35.67578125 C-12.1716624 33.04193001 -12.98764844 31.09441614 -13.4609375 27.4765625 C-13.3093991 21.68620032 -10.38262772 17.07494175 -7.625 12.125 C-7.11710937 11.17625 -6.60921875 10.2275 -6.0859375 9.25 C-2.3519507 2.3519507 -2.3519507 2.3519507 0 0 Z " fill="#FDF2F3" transform="translate(435,98)"/>
<path d="M0 0 C2 0 2 0 3.6875 1.25 C5 3 5 3 4.83984375 4.78125 C3.7018348 7.78771086 1.94460419 9.79453741 -0.125 12.25 C-0.929375 13.21421875 -1.73375 14.1784375 -2.5625 15.171875 C-5.26018499 18.3018813 -8.0315345 21.35307618 -10.8828125 24.34375 C-11.25148438 24.8903125 -11.62015625 25.436875 -12 26 C-10.48847072 30.53458783 -6.90882979 32.28069827 -3.15234375 35.0625 C-2.08693359 36.0215625 -2.08693359 36.0215625 -1 37 C-1 40 -1 40 -3 43 C-5.95399506 41.64846172 -8.23557476 40.1032015 -10.671875 37.9609375 C-11.33574219 37.38085938 -11.99960937 36.80078125 -12.68359375 36.203125 C-13.36550781 35.59984375 -14.04742187 34.9965625 -14.75 34.375 C-15.79607422 33.45847656 -15.79607422 33.45847656 -16.86328125 32.5234375 C-18.5788674 31.01936197 -20.29093409 29.51147502 -22 28 C-19.56067027 22.91298253 -15.97581852 18.93643627 -12.36328125 14.63085938 C-10.9096396 12.89190411 -9.47024506 11.14171379 -8.03125 9.390625 C-7.04213798 8.19752578 -6.05256261 7.00481052 -5.0625 5.8125 C-4.59013916 5.2357251 -4.11777832 4.6589502 -3.63110352 4.06469727 C-2.46483949 2.67165381 -1.23729397 1.3303554 0 0 Z " fill="#FDEFF0" transform="translate(471,120)"/>
<path d="M0 0 C5.74205378 0.02080454 11.53469465 3.40969465 15.5625 7.4375 C15.4765625 9.36328125 15.4765625 9.36328125 15.1875 11.75 C15.09726563 12.52988281 15.00703125 13.30976563 14.9140625 14.11328125 C14.58762033 16.27142672 14.13110512 18.33173359 13.5625 20.4375 C9.18680599 19.85711734 5.54305372 18.75807626 1.5 17 C0.49839844 16.56816406 -0.50320312 16.13632813 -1.53515625 15.69140625 C-2.49292969 15.27761719 -3.45070313 14.86382812 -4.4375 14.4375 C-6.10181392 13.76498131 -7.76768263 13.09623529 -9.4375 12.4375 C-8.74408947 6.54351047 -6.15390509 0.78322428 0 0 Z " fill="#E6272F" transform="translate(98.4375,224.5625)"/>
<path d="M0 0 C3.7659531 2.64634542 4.98085138 5.58368932 6 10 C6.42358188 12.92553882 6.34154575 14.97488048 6 18 C3.8125 20.5 3.8125 20.5 1 22 C-1.67578125 22.09375 -1.67578125 22.09375 -4 22 C-4.84003448 19.2518872 -5.67222151 16.50180419 -6.5 13.75 C-6.73847656 12.97269531 -6.97695313 12.19539062 -7.22265625 11.39453125 C-7.44824219 10.64042969 -7.67382812 9.88632812 -7.90625 9.109375 C-8.22045898 8.07248535 -8.22045898 8.07248535 -8.54101562 7.01464844 C-9 5 -9 5 -9 1 C-5.90826248 -0.54586876 -3.40570448 -0.29359521 0 0 Z " fill="#FEF6F7" transform="translate(381,537)"/>
<path d="M0 0 C6 0 6 0 9 2 C9.36328125 4.71484375 9.36328125 4.71484375 9.3125 7.9375 C9.30863281 8.99839844 9.30476563 10.05929687 9.30078125 11.15234375 C9 14 9 14 7 17 C4.69 17 2.38 17 0 17 C0 11.39 0 5.78 0 0 Z " fill="#F29833" transform="translate(391,429)"/>
<path d="M0 0 C2.4375 0.8125 2.4375 0.8125 4.4375 2.8125 C4.6328125 5.6328125 4.6328125 5.6328125 4.5625 8.9375 C4.54445313 10.03320312 4.52640625 11.12890625 4.5078125 12.2578125 C4.48460938 13.10085938 4.46140625 13.94390625 4.4375 14.8125 C1.1375 14.8125 -2.1625 14.8125 -5.5625 14.8125 C-5.64357583 12.87568839 -5.70172475 10.9379066 -5.75 9 C-5.78480469 7.92105469 -5.81960937 6.84210938 -5.85546875 5.73046875 C-5.5625 2.8125 -5.5625 2.8125 -4.2109375 0.9140625 C-2.5625 -0.1875 -2.5625 -0.1875 0 0 Z " fill="#E72E35" transform="translate(93.5625,302.1875)"/>
<path d="M0 0 C4.70588235 0.70588235 4.70588235 0.70588235 6 2 C6.07244053 4.01964199 6.08377188 6.04167124 6.0625 8.0625 C6.05347656 9.16722656 6.04445313 10.27195312 6.03515625 11.41015625 C6.02355469 12.26480469 6.01195313 13.11945313 6 14 C3.03 14 0.06 14 -3 14 C-3.19263454 9.18413661 -2.81361417 5.48069384 -1 1 C-0.67 0.67 -0.34 0.34 0 0 Z " fill="#E7343B" transform="translate(76,303)"/>
<path d="M0 0 C1.875 1.1875 1.875 1.1875 3 3 C3.07443118 5.82838471 2.60277974 7.35691812 0.65625 9.43359375 C-3.46582861 13 -3.46582861 13 -6 13 C-7.2890625 11.5390625 -7.2890625 11.5390625 -8.625 9.625 C-9.29402344 8.68527344 -9.29402344 8.68527344 -9.9765625 7.7265625 C-11 6 -11 6 -11 4 C-7.37956787 1.13733274 -4.70142964 -0.88945966 0 0 Z " fill="#E62A31" transform="translate(181,121)"/>
<path d="M0 0 C0.02687279 1.81242052 0.04633715 3.62495233 0.0625 5.4375 C0.07410156 6.44683594 0.08570312 7.45617187 0.09765625 8.49609375 C0 11 0 11 -1 12 C-2.66617115 12.04063832 -4.33388095 12.042721 -6 12 C-7.29243536 7.8803623 -8.26252625 4.33168317 -8 0 C-4.71023192 -1.09658936 -3.28696233 -0.79953138 0 0 Z " fill="#FCEAEB" transform="translate(86,362)"/>
<path d="M0 0 C0.7425 0.2475 1.485 0.495 2.25 0.75 C2.64169887 3.41355234 2.65564529 5.14224373 1.13671875 7.41796875 C-0.11389317 8.9010888 -1.42864514 10.32954352 -2.75 11.75 C-4.75 10.75 -6.75 9.75 -8.75 8.75 C-7.21419612 4.14258836 -5.47554607 -0.49777692 0 0 Z " fill="#FCE8E9" transform="translate(501.75,454.25)"/>
<path d="M0 0 C2.31 0 4.62 0 7 0 C7 3.63 7 7.26 7 11 C5.35 10.67 3.7 10.34 2 10 C0.05074939 6.65842753 -0.21821974 3.81884554 0 0 Z " fill="#FCE7E8" transform="translate(93,359)"/>
<path d="M0 0 C-1.56641751 4.30764815 -3.68336156 8.06171464 -6 12 C-10.875 7.375 -10.875 7.375 -12 4 C-10.56570999 3.32645501 -9.12742943 2.66140299 -7.6875 2 C-6.88699219 1.62875 -6.08648437 1.2575 -5.26171875 0.875 C-3 0 -3 0 0 0 Z " fill="#E83940" transform="translate(501,160)"/>
<path d="M0 0 C-0.52268466 2.76276177 -1.10869587 5.3260876 -2 8 C-6.5076467 7.46968862 -9.41954788 5.74778884 -13 3 C-13 2.34 -13 1.68 -13 1 C-8.60563789 0.14256349 -4.47427924 -0.08948558 0 0 Z " fill="#E83940" transform="translate(96,267)"/>
<path d="M0 0 C6.0546875 -0.1953125 6.0546875 -0.1953125 8 0 C8.66 0.66 9.32 1.32 10 2 C9.46428571 5.53571429 9.46428571 5.53571429 8 7 C5.32941149 7.14115161 2.67567762 7.04247107 0 7 C0 4.69 0 2.38 0 0 Z " fill="#DC8A2F" transform="translate(340,440)"/>
<path d="M0 0 C6.0546875 -0.1953125 6.0546875 -0.1953125 8 0 C8.66 0.66 9.32 1.32 10 2 C9.46428571 5.53571429 9.46428571 5.53571429 8 7 C5.32941149 7.14115161 2.67567762 7.04247107 0 7 C0 4.69 0 2.38 0 0 Z " fill="#DA892E" transform="translate(241,440)"/>
<path d="M0 0 C1.41623216 -0.05447047 2.83308191 -0.09300508 4.25 -0.125 C5.03890625 -0.14820313 5.8278125 -0.17140625 6.640625 -0.1953125 C9.20731941 0.0171622 10.7916067 0.71345895 13 2 C11.73608512 3.00873016 10.46359117 4.00671822 9.1875 5 C8.12595703 5.8353125 8.12595703 5.8353125 7.04296875 6.6875 C5 8 5 8 2 8 C1.34 5.36 0.68 2.72 0 0 Z " fill="#E7353C" transform="translate(543,267)"/>
<path d="M0 0 C1.60463449 0.31008884 3.20869231 0.62316287 4.8125 0.9375 C5.70582031 1.11152344 6.59914063 1.28554687 7.51953125 1.46484375 C10 2 10 2 13 3 C11.79641403 6.42559084 10.64107354 8.53258609 8 11 C6.66375099 9.35653302 5.33107149 7.71016314 4 6.0625 C3.2575 5.14597656 2.515 4.22945312 1.75 3.28515625 C0 1 0 1 0 0 Z " fill="#E7333A" transform="translate(112,194)"/>
<path d="M0 0 C2.9555377 2.75170751 5.11563315 5.41970299 7 9 C7 9.66 7 10.32 7 11 C2.545 11.495 2.545 11.495 -2 12 C-1 3.42857143 -1 3.42857143 0 0 Z " fill="#E7333A" transform="translate(281,82)"/>
<path d="M0 0 C0.66 0.33 1.32 0.66 2 1 C-6.58 9.58 -15.16 18.16 -24 27 C-24.66 26.67 -25.32 26.34 -26 26 C-17.33333333 17.33333333 -8.66666667 8.66666667 0 0 Z " fill="#C32A30" transform="translate(145,119)"/>
<path d="M0 0 C2.31 0 4.62 0 7 0 C7.38218767 1.65614657 7.71395102 3.32457024 8 5 C7 6 7 6 3.4375 6.0625 C2.303125 6.041875 1.16875 6.02125 0 6 C0 4.02 0 2.04 0 0 Z " fill="#EB9332" transform="translate(340,428)"/>
<path d="M0 0 C2.31 0 4.62 0 7 0 C7.38218767 1.65614657 7.71395102 3.32457024 8 5 C7 6 7 6 3.4375 6.0625 C2.303125 6.041875 1.16875 6.02125 0 6 C0 4.02 0 2.04 0 0 Z " fill="#E89231" transform="translate(241,428)"/>
<path d="M0 0 C2.31 0.33 4.62 0.66 7 1 C7 2.65 7 4.3 7 6 C4.69 6.33 2.38 6.66 0 7 C0 4.69 0 2.38 0 0 Z " fill="#EB9432" transform="translate(292,428)"/>
<path d="M0 0 C2.12508244 3.18762365 2.5020163 5.26512223 3 9 C1.02 9 -0.96 9 -3 9 C-2.44271087 5.65626525 -1.64826111 2.96687001 0 0 Z " fill="#FAD4D6" transform="translate(306,549)"/>
<path d="M0 0 C2.97 0 5.94 0 9 0 C8.34 1.98 7.68 3.96 7 6 C3.63279613 4.60667426 2.0140476 3.0210714 0 0 Z " fill="#FAD7D8" transform="translate(527,418)"/>
<path d="M0 0 C0 0.33 0 0.66 0 1 C-1.5159375 1.2784375 -1.5159375 1.2784375 -3.0625 1.5625 C-7.92651732 2.90258641 -10.75505217 6.31121432 -14 10 C-14.66 9.67 -15.32 9.34 -16 9 C-8.41176471 -0.48529412 -8.41176471 -0.48529412 0 0 Z " fill="#EA484F" transform="translate(504,445)"/>
<path d="M0 0 C1.98 1.65 3.96 3.3 6 5 C4.625 6.5 4.625 6.5 3 8 C2.34 8 1.68 8 1 8 C-0.35439668 5.29120665 -0.06501451 2.99066732 0 0 Z " fill="#FCE7E8" transform="translate(426,524)"/>
<path d="M0 0 C1.09658936 3.28976808 0.79953138 4.71303767 0 8 C-1.32 7.67 -2.64 7.34 -4 7 C-4 5.68 -4 4.36 -4 3 C-2 1.25 -2 1.25 0 0 Z " fill="#FCE6E7" transform="translate(209,522)"/>
<path d="M0 0 C-0.84304687 0.35191406 -0.84304687 0.35191406 -1.703125 0.7109375 C-4.54635891 2.30663 -6.48098127 4.28924543 -8.75 6.625 C-9.54921875 7.44226563 -10.3484375 8.25953125 -11.171875 9.1015625 C-11.77515625 9.72804688 -12.3784375 10.35453125 -13 11 C-13 8 -13 8 -10.6875 5.5 C-9.800625 4.675 -8.91375 3.85 -8 3 C-7.505 2.401875 -7.01 1.80375 -6.5 1.1875 C-4.3553429 -0.51035354 -2.65005894 -0.21486964 0 0 Z " fill="#F9CECF" transform="translate(170,487)"/>
<path d="M0 0 C3.96 0.33 7.92 0.66 12 1 C12 1.33 12 1.66 12 2 C8.7 2 5.4 2 2 2 C2 3.65 2 5.3 2 7 C2.66 7.33 3.32 7.66 4 8 C3.01 8 2.02 8 1 8 C0.67 5.36 0.34 2.72 0 0 Z " fill="#F5ADB0" transform="translate(526,258)"/>
<path d="M0 0 C0.66 0.33 1.32 0.66 2 1 C0.5459375 2.3303125 0.5459375 2.3303125 -0.9375 3.6875 C-3.60122242 6.32615209 -4.7731363 8.14331715 -5 12 C-5.33 12 -5.66 12 -6 12 C-6.35671933 8.16526716 -6.29771416 6.44657125 -4.125 3.1875 C-2 1 -2 1 0 0 Z " fill="#EA5056" transform="translate(530,225)"/>
<path d="M0 0 C0.66 0.33 1.32 0.66 2 1 C-0.64 3.64 -3.28 6.28 -6 9 C-6.33 8.34 -6.66 7.68 -7 7 C-4.66666667 4.66666667 -2.33333333 2.33333333 0 0 Z " fill="#FAD9DB" transform="translate(526,219)"/>
<path d="M0 0 C0.66 0.33 1.32 0.66 2 1 C-0.31 3.31 -2.62 5.62 -5 8 C-5 5 -5 5 -2.5 2.3125 C-1.675 1.549375 -0.85 0.78625 0 0 Z " fill="#F9D0D2" transform="translate(92,219)"/>
</svg>
